<svg width="14" height="14" viewBox="0 0 14 14" fill="none" xmlns="http://www.w3.org/2000/svg">
<path d="M12.1595 2.69023C11.8616 2.39215 11.5078 2.15569 11.1185 1.99436C10.7291 1.83304 10.3118 1.75 9.89034 1.75C9.46889 1.75 9.05156 1.83304 8.66221 1.99436C8.27286 2.15569 7.91911 2.39215 7.62117 2.69023L7.00284 3.30857L6.3845 2.69023C5.78268 2.08841 4.96644 1.75031 4.11534 1.75031C3.26423 1.75031 2.44799 2.08841 1.84617 2.69023C1.24435 3.29205 0.90625 4.1083 0.90625 4.9594C0.90625 5.8105 1.24435 6.62674 1.84617 7.22857L2.4645 7.8469L7.00284 12.3852L11.5412 7.8469L12.1595 7.22857C12.4576 6.93062 12.694 6.57687 12.8554 6.18752C13.0167 5.79817 13.0997 5.38085 13.0997 4.9594C13.0997 4.53795 13.0167 4.12063 12.8554 3.73127C12.694 3.34192 12.4576 2.98817 12.1595 2.69023Z" stroke="#A3A3A3" stroke-linecap="round" stroke-linejoin="round"/>
</svg>
