<svg width="128" height="22" viewBox="0 0 128 22" fill="none" xmlns="http://www.w3.org/2000/svg">
<path d="M5 12.623C6.29452 12.4984 7.52423 11.9674 8.77169 11.5853C18.8731 8.49122 29.3093 7.2811 39.6936 6.22364C43.417 5.84447 47.7581 5.43802 51.5774 5.28967C52.5895 5.25036 54.4669 4.47558 54.6007 5.63558C54.7761 7.15582 46.9191 12.0119 45.8899 12.8306C45.3015 13.2986 41.6314 15.5023 41.5794 16.7048C41.563 17.0847 42.2084 16.9944 42.5373 16.9815C46.8632 16.813 51.3284 15.8652 55.5885 15.252C77.9391 12.035 100.476 8.10374 123 7.01924" stroke="url(#paint0_linear_1066_35575)" stroke-width="10" stroke-linecap="round"/>
<defs>
<linearGradient id="paint0_linear_1066_35575" x1="5" y1="11" x2="123" y2="11" gradientUnits="userSpaceOnUse">
<stop stop-color="#DDFFF1"/>
<stop offset="1" stop-color="#76FFE6"/>
</linearGradient>
</defs>
</svg>
