<svg width="375" height="460" viewBox="0 0 375 460" fill="none" xmlns="http://www.w3.org/2000/svg">
<mask id="mask0_1066_35525" style="mask-type:alpha" maskUnits="userSpaceOnUse" x="-85" y="-74" width="546" height="534">
<rect x="5.76562" y="-74" width="463.908" height="449" transform="rotate(11.6624 5.76562 -74)" fill="url(#paint0_linear_1066_35525)"/>
</mask>
<g mask="url(#mask0_1066_35525)">
<g clip-path="url(#clip0_1066_35525)">
<path d="M456.287 21.6757L7.19531 -71.0195L-83.2344 367.097L365.858 459.792L456.287 21.6757Z" fill="#A1C0FC"/>
<path d="M442.827 72.0432C442.827 72.0432 442.896 72.0127 442.939 72.0216L448.59 73.188C449.845 68.54 451.049 63.8814 452.175 59.2068L437.625 56.2486L436.818 56.0819L350.229 38.2541L357.844 1.35797L347.487 -0.779925L339.871 36.1162L204.64 8.27531L212.269 -28.6896L201.912 -30.8274L194.282 6.13742L78.5756 -17.6913L86.216 -54.7077L75.8583 -56.8456L68.2144 -19.812L4.24021 -32.9808C3.34744 -30.9981 2.4049 -29.0347 1.44519 -27.0748C0.253835 -24.6433 -0.840998 -22.2457 -1.83277 -19.8267L65.355 -5.95877C65.3979 -5.94991 65.4373 -5.92387 65.4628 -5.87384L83.7308 33.6427C83.7308 33.6427 83.7456 33.7443 83.7196 33.7837C83.6918 33.8316 83.6435 33.8485 83.5902 33.8465L-11.5786 27.3034C-12.1873 30.0789 -12.8837 32.8454 -13.6849 35.5991L31.3798 38.6058C31.3798 38.6058 31.4571 38.6218 31.4844 38.6632C31.5134 38.6961 31.5235 38.734 31.5146 38.7769L23.4259 90.2427C23.4259 90.2427 23.3927 90.3165 23.3617 90.3369C23.3306 90.3574 23.2841 90.3657 23.2497 90.3586L10.6335 87.7097L-18.6962 81.6559C-18.7631 81.6332 -18.8126 81.5692 -18.807 81.4987C-18.807 81.4987 -23.2598 87.3671 -23.9127 91.1812L76.0487 111.814C76.1003 111.824 77.6568 112.092 78.3977 113.839C79.0807 115.475 77.696 117.195 77.6371 117.264L47.1698 141.796C47.1698 141.796 46.2036 142.573 44.6234 142.246L40.2175 141.337L-29.1601 126.972C-30.4484 126.706 -31.8811 125.882 -33.3718 124.688C-34.2449 128.224 -34.8929 131.797 -35.4808 135.383L-35.1888 135.443L-33.5827 135.775C-33.5827 135.775 -33.6171 135.768 -33.6343 135.764L-31.719 136.16C-31.4614 136.213 -31.2159 136.281 -30.9668 136.333L-8.71961 140.996L-0.354418 142.723C-1.18711 147.798 -1.43895 156.307 3.16922 165.433C9.89813 178.732 24.3739 188.596 46.1974 194.748C62.0117 199.213 72.4893 206.757 77.3388 217.187C84.5325 232.658 77.1647 249.96 76.7722 250.864L-15.8803 381.278C-12.6136 381.46 -9.36497 381.772 -6.12014 382.146L84.5771 254.48L87.0008 251.068L112.107 215.722C129.896 245.191 179.581 326.983 210.094 376.889L147.751 411.39C152.4 412.466 157.058 413.544 161.704 414.637L215.109 385.088C224.838 400.984 231.943 412.507 234.294 416.171C237.859 421.715 239.486 427.629 239.97 433.308C242.385 433.887 244.789 434.473 247.204 435.052C247.027 426.016 244.974 418.393 241.065 412.303C238.678 408.596 231.616 397.127 221.941 381.313L261.63 359.347C270.497 373.436 278.117 385.494 282.876 393.022L283.587 394.136L283.768 394.388L273.04 409.922L269.144 415.565L254.48 436.804C257.585 437.553 260.688 438.31 263.793 439.058L280.616 416.598L285.052 410.682L290.79 403.01L290.971 403.262L290.922 403.324L290.984 403.283C296.624 411.709 317.495 439.263 354.172 448.418C354.131 448.401 354.092 448.374 354.052 448.348C354.147 448.368 354.227 448.411 354.322 448.431C356.34 448.848 358.319 447.501 358.748 445.423C358.793 445.208 358.809 444.996 358.824 444.794C358.844 444.395 358.8 444.001 358.697 443.63C358.376 442.409 357.464 441.406 356.237 441.018L356.254 441.022C356.159 441.002 356.069 440.965 355.974 440.946C355.94 440.939 355.905 440.932 355.862 440.923L355.845 440.919C341.106 437.188 327.247 429.411 314.619 417.752C304.355 408.264 298.178 399.145 296.366 396.299L296.342 396.33L296.157 396.095L296.256 395.963C296.256 395.963 296.256 395.963 296.267 395.956C299.448 392.342 303.532 387.391 308.254 381.65C319.953 367.445 335.968 347.989 352.646 331.696C352.679 331.667 352.735 331.652 352.778 331.661L356.609 332.451C356.678 332.465 356.72 332.474 356.789 332.488C357.308 332.578 361.774 333.455 362.09 337.263C362.373 340.706 364.473 360.597 366.642 380.977C366.669 380.974 366.697 380.971 366.716 380.966C366.696 381.15 366.693 381.337 366.7 381.518C366.711 381.771 366.73 382.025 366.778 382.268C367.102 383.911 368.351 385.279 370.051 385.63C370.24 385.669 370.427 385.672 370.613 385.683C371.666 381.406 372.889 377.172 374.263 372.987C372.384 355.282 370.729 339.529 370.489 336.57C369.818 328.498 362.648 325.012 358.501 324.237C358.45 324.226 358.412 324.191 358.394 324.152C358.377 324.103 358.379 324.05 358.413 324.013C364.26 315.817 370.202 306.334 376.069 295.824C376.097 295.776 376.147 295.751 376.192 295.751C376.243 295.761 376.295 295.772 376.32 295.822L390.141 320.273C390.141 320.273 390.142 320.264 390.153 320.257C390.158 320.276 390.17 320.305 390.173 320.333C390.252 320.555 390.351 320.773 390.47 320.976C391.081 316.455 391.771 311.941 392.565 307.44L380.962 286.912C380.962 286.912 380.937 286.818 380.956 286.768C384.196 280.613 387.451 274.086 390.631 267.355C391.915 264.647 393.179 261.908 394.497 258.993C395.556 256.901 398.579 252.188 404.409 251.753C404.992 248.927 405.61 246.109 406.234 243.3C405.906 243.286 405.567 243.279 405.235 243.282C403.954 243.286 402.675 243.408 401.433 243.653C401.416 243.649 401.397 243.654 401.372 243.649C401.337 243.642 401.313 243.628 401.284 243.595C401.248 243.552 401.242 243.497 401.261 243.447C402.741 239.92 404.157 236.443 405.473 233.105C405.494 233.047 405.546 233.013 405.608 233.017C405.671 233.012 405.719 233.04 405.741 233.107L407.584 237.195C408.86 231.53 410.154 225.869 411.373 220.184L410.797 220.065C410.797 220.065 410.723 220.032 410.703 220.001C410.682 219.97 410.674 219.924 410.681 219.889L421.098 179.963C421.114 179.885 421.195 179.839 421.273 179.855L423.806 180.378C424.045 179.568 424.267 178.754 424.497 177.942C424.857 175.285 425.218 172.629 425.595 169.976L423.491 169.541C423.414 169.525 423.366 169.453 423.373 169.374L432.173 126.221C432.173 126.221 432.197 126.145 432.23 126.116C432.261 126.096 432.299 126.086 432.342 126.095L433.828 126.401C434.493 123.745 435.185 121.085 435.893 118.437L433.385 117.92C433.308 117.904 433.258 117.84 433.265 117.761L442.744 72.1872C442.744 72.1872 442.768 72.1117 442.801 72.0826L442.827 72.0432ZM349.156 52.7358C349.156 52.7358 349.239 52.6813 349.29 52.6919L434.926 70.3676C435.003 70.3836 435.051 70.4561 435.044 70.5352L425.79 115.367C425.79 115.367 425.774 115.444 425.733 115.472C425.702 115.492 425.655 115.5 425.621 115.493L354.802 82.6895L349.127 52.8732C349.119 52.8267 349.13 52.7752 349.164 52.7376L349.156 52.7358ZM379.697 103.328L379.722 103.208L361.569 115.239C361.538 115.259 361.5 115.269 361.457 115.26C361.457 115.26 361.44 115.257 361.431 115.255C361.388 115.246 361.352 115.203 361.344 115.156L361.272 114.855L356.501 92.2006C356.484 92.1523 356.503 92.1026 356.529 92.0632C356.564 92.0256 356.612 92.0087 356.664 92.0193L380.237 102.929C380.297 102.941 379.707 103.151 379.714 103.206C379.729 103.263 379.732 103.291 379.689 103.326L379.697 103.328ZM335.016 49.7456L339.602 50.6923C339.654 50.7029 339.698 50.7479 339.713 50.8047L355.006 123.259C355.006 123.259 355.028 123.327 355.021 123.361C355.005 123.438 354.931 123.494 354.845 123.477C354.845 123.477 354.845 123.477 354.837 123.475L255.415 88.2955C255.355 88.2831 255.312 88.2295 255.308 88.1658C255.303 88.1022 255.332 88.0456 255.391 88.0219L334.923 49.7623C334.923 49.7623 334.98 49.7471 335.014 49.7542L335.016 49.7456ZM291.296 40.8738C291.312 40.7966 291.387 40.7402 291.472 40.758L319.806 46.6062C319.866 46.6186 319.917 46.6739 319.924 46.729C319.929 46.7927 319.899 46.8492 319.839 46.8815L287.065 62.5475C287.065 62.5475 286.999 62.5609 286.973 62.5556C286.956 62.552 286.93 62.5467 286.917 62.526C286.871 62.4896 286.855 62.4327 286.866 62.3812L291.307 40.867L291.296 40.8738ZM257.518 33.9018C257.534 33.8245 257.617 33.7699 257.694 33.7859L282.936 38.9959C283.013 39.0118 283.059 39.093 283.043 39.1703L277.257 67.2031C277.248 67.246 277.213 67.2837 277.174 67.3023L248.06 80.8496C248.06 80.8496 247.995 80.863 247.969 80.8576C247.952 80.8541 247.926 80.8488 247.913 80.828C247.866 80.7916 247.851 80.7348 247.862 80.6833L257.52 33.8932L257.518 33.9018ZM357.431 132.902L364.801 158.753C364.809 158.799 364.799 158.851 364.764 158.888C364.73 158.926 364.681 158.943 364.63 158.932L363.616 158.723L212.808 136.415C210.412 135.921 208.992 133.953 209.445 131.754C209.453 131.72 209.976 126.232 209.285 121.773C208.747 118.304 207.626 115.449 207.615 115.42C207.567 115.302 206.616 112.536 210.607 109.859L212.816 108.399L244.622 93.5177L357.42 132.909L357.431 132.902ZM201.477 174.613L201.564 174.192L204.798 155.876L205.689 150.867L205.62 150.852L206.079 148.019C206.553 145.726 208.799 144.256 211.084 144.727L363.427 166.626C365.66 167.087 367.135 169.308 366.855 171.793L366.838 171.79C366.32 175.166 364.553 184.902 361.076 202.397C360.629 204.562 358.272 206.699 355.893 206.208L201.461 174.601L201.477 174.613ZM222.529 189.838L221.534 190.322C210.767 194.851 202.947 201.717 198.269 210.717C197.11 212.95 196.13 215.353 195.37 217.865C195.356 217.933 195.283 217.981 195.206 217.965C195.125 217.966 195.086 217.896 195.083 217.823C195.026 214.758 195.185 211.558 195.551 208.312L197.61 196.425L197.703 195.978C201.515 192.95 208.053 186.957 208.121 186.891L208.299 186.722C208.299 186.722 208.38 186.676 208.432 186.686L222.496 189.562C222.556 189.575 222.601 189.62 222.614 189.685C222.619 189.749 222.589 189.805 222.531 189.829L222.529 189.838ZM366.917 136.006C388.647 143.697 400.985 149.861 403.003 152.06C405.971 155.296 409.14 161.977 411.376 167.372L373.724 159.6C373.664 159.588 373.619 159.543 373.613 159.488L366.919 135.998L366.917 136.006ZM204.909 22.8908L248.573 31.9033C248.874 31.9653 249.083 32.0801 249.176 32.2338C249.258 32.3581 249.244 32.4715 249.238 32.4973L237.95 87.1888L237.881 87.2193L203.261 103.803C203.131 103.91 202.2 104.604 200.929 104.342C200.319 104.216 199.733 103.889 199.179 103.363C196.075 100.439 192.793 98.2932 189.422 96.9705C189.422 96.9705 186.817 96.3164 187.099 93.2584L201.112 25.3664C201.112 25.3664 201.886 22.2668 204.918 22.8926L204.909 22.8908ZM182.419 181.353L191.308 183.188L189.551 191.699C187.189 192.859 184.713 193.575 182.522 193.301C182.366 193.278 182.201 193.253 182.038 193.219C178.13 192.413 171.667 187.802 165.938 183.718L165.876 183.669C161.395 180.479 157.059 177.497 152.992 175.333L174.361 179.743C174.361 179.743 174.443 179.733 174.526 179.724L175.385 179.901C175.385 179.901 175.292 179.918 175.255 179.919L182.419 181.353ZM122.855 7.51248C123.908 6.18949 125.655 6.53217 125.723 6.54635L189.811 19.7743C192.894 20.4108 192.391 23.3693 192.385 23.3951L178.289 91.6907C178.289 91.6907 177.792 94.1849 175.354 94.3265C170.939 94.5882 167.464 95.241 165.04 96.2718C165 96.2905 164.004 96.6937 162.878 96.4615C161.968 96.2736 161.239 95.729 160.733 94.8367L122.424 11.0321C122.104 10.3302 121.838 8.79785 122.855 7.51248ZM73.4281 100.563C73.4121 100.641 73.3378 100.697 73.2519 100.679L31.7953 92.1224C31.718 92.1065 31.6685 92.0425 31.6759 91.9635L39.6649 39.3757C39.6808 39.2984 39.7448 39.2489 39.8238 39.2563L85.2732 42.3513C85.3162 42.3602 85.3591 42.3691 85.3778 42.4087C85.4068 42.4416 85.4152 42.4881 85.4063 42.531L73.4263 100.572L73.4281 100.563ZM94.388 36.5856L75.6838 -3.59404C75.6583 -3.64407 75.6707 -3.70419 75.6968 -3.74358C75.7332 -3.78979 75.79 -3.80493 75.8415 -3.79429L107.112 2.66017C109.088 3.06789 109.919 5.24521 109.963 5.33491L152.902 98.378C152.902 98.378 153.902 100.474 152.317 102.036C150.18 104.147 146.37 108.33 144.842 112.653C144.835 112.688 143.816 115.28 141.161 114.741C140.311 114.565 138.971 114.289 137.571 114C134.771 113.422 131.705 112.789 131.705 112.789L81.7871 102.45C81.7098 102.434 81.6535 102.36 81.6712 102.274L94.6865 39.2171C94.8673 38.3411 94.7561 37.4048 94.3794 36.5838L94.388 36.5856ZM60.9911 145.374L95.2265 116.945C95.2801 116.903 96.4568 116.017 97.8481 116.304L148.829 126.827C151.372 127.352 152.196 124.791 152.236 124.683L152.683 122.519C155.375 109.473 168.184 101.04 181.238 103.734C194.293 106.429 202.717 119.235 200.022 132.29L196.578 148.977C196.566 149.037 195.312 154.939 191.042 160.138C187.094 164.946 179.705 170.119 166.899 167.476L123.964 158.667C123.964 158.667 123.989 158.673 124.006 158.676C123.498 158.536 122.971 158.4 122.421 158.286L61.0653 145.622C61.0137 145.612 60.9693 145.567 60.9524 145.518C60.9459 145.463 60.9583 145.403 61.0015 145.367L60.9911 145.374ZM90.1414 232.034C90.1176 226.119 89.0896 219.603 86.1227 213.197C80.0498 200.061 67.497 190.728 48.8052 185.455C29.799 180.099 17.3697 171.946 11.8597 161.246C8.40285 154.524 8.52193 148.307 9.06893 144.659L123.45 168.268C123.45 168.268 126.688 168.677 128.167 171.444C129.718 174.343 128.105 178.3 128.033 178.473L123.099 185.63L90.1328 232.032L90.1414 232.034ZM117.03 208.787L131.786 188.014C131.51 188.396 137.164 179.22 144.095 180.651C148.362 181.541 155.066 186.327 160.984 190.539C168.47 195.872 175.503 200.888 181.451 201.659C183.431 201.915 185.485 201.766 187.578 201.258L187.335 202.434L187.369 202.441L186.287 208.728C184.615 223.337 186.74 236.249 192.608 247.122C196.392 254.126 205.891 269.841 217.503 288.678L178.573 310.219C153.545 269.092 128.137 227.206 117.03 208.787ZM216.918 373.113C207.204 357.229 195.552 338.106 183.569 318.422L222.559 296.849C233.444 314.435 245.627 333.891 256.505 351.206L216.918 373.113ZM306.582 361.337L288.92 386.909L288.587 386.482C284.165 379.49 220.883 279.373 203.004 248.426C202.04 245.415 197.689 229.841 204.832 216.102C209.527 207.06 218.39 200.651 231.173 197.066C237.917 194.76 248.829 196.69 248.932 196.711L356.983 219.014C356.983 219.014 357.057 219.047 357.078 219.078C357.098 219.109 357.108 219.147 357.099 219.19L356.793 220.542C347.809 263.549 331.803 322.872 306.572 361.343L306.582 361.337ZM338.226 335.659L318.141 357.83C318.106 357.868 318.049 357.883 318.006 357.874C317.989 357.871 317.972 357.867 317.957 357.855C317.893 357.815 317.873 357.739 317.906 357.666C320.901 351.443 323.338 347.012 326.154 341.871C328.278 338.002 330.676 333.626 333.687 327.801C333.717 327.744 333.788 327.705 333.848 327.717L343.184 329.644C343.235 329.655 343.273 329.69 343.29 329.738C343.306 329.786 343.296 329.838 343.259 329.884C341.577 331.918 339.886 333.862 338.228 335.651L338.226 335.659ZM398.844 227.609C398.643 228.15 378.588 282.581 349.245 322.228C349.217 322.276 349.159 322.299 349.099 322.287L337.152 319.821C337.109 319.812 337.07 319.786 337.051 319.746C337.032 319.707 337.031 319.671 337.05 319.621C345.202 299.258 352.589 275.227 359.654 246.16C361.863 237.061 363.874 228.146 365.648 219.808C365.628 219.777 365.618 219.739 365.627 219.696L365.643 219.619L399.09 226.46C399.09 226.46 399.164 226.493 399.191 226.535C399.212 226.566 399.211 226.61 399.202 226.653L398.842 227.618L398.844 227.609ZM402.543 218.407C402.527 218.484 402.455 218.532 402.369 218.514L367.434 211.07C367.434 211.07 367.467 211.041 367.486 211.036C372.209 187.978 374.906 171.181 374.939 170.937C374.955 170.859 375.029 170.803 375.106 170.819C375.106 170.819 375.115 170.821 375.124 170.822L412.329 178.502C412.329 178.502 412.403 178.535 412.423 178.566C412.444 178.597 412.452 178.644 412.445 178.678L402.552 218.408L402.543 218.407ZM417.397 157.681C415.276 153.25 412.698 148.688 409.958 145.696C403.927 139.123 375.51 128.951 363.766 124.942L363.335 123.429L363.31 123.29C363.31 123.29 363.301 123.243 363.305 123.226L363.378 122.874C363.378 122.874 363.409 122.809 363.44 122.788L388.204 106.364C388.204 106.364 388.273 106.334 388.316 106.343L424.611 123.424C424.688 123.44 424.736 123.513 424.728 123.592L417.393 157.698L417.397 157.681Z" fill="white"/>
<path d="M356.927 132.592L359.885 123.64L356.927 132.592Z" fill="white"/>
</g>
</g>
<defs>
<linearGradient id="paint0_linear_1066_35525" x1="237.72" y1="-74" x2="237.72" y2="375" gradientUnits="userSpaceOnUse">
<stop stop-color="#D9D9D9" stop-opacity="0"/>
<stop offset="0.48" stop-color="#C9C9C9" stop-opacity="0.33"/>
<stop offset="1" stop-color="#737373" stop-opacity="0"/>
</linearGradient>
<clipPath id="clip0_1066_35525">
<rect width="462.365" height="460.269" fill="white" transform="translate(6.95312 -71.0684) rotate(11.6624)"/>
</clipPath>
</defs>
</svg>
