<svg width="16" height="16" viewBox="0 0 16 16" fill="none" xmlns="http://www.w3.org/2000/svg">
<path d="M7.99959 0.5C8.20674 0.50001 8.40647 0.577178 8.55982 0.716455C8.71317 0.855732 8.80914 1.04713 8.82903 1.25333L8.83292 1.33333V7.16667H14.6663C14.8803 7.16677 15.086 7.24921 15.2409 7.39689C15.3958 7.54458 15.4879 7.74619 15.4982 7.95995C15.5085 8.17372 15.4361 8.38324 15.2962 8.54511C15.1562 8.70698 14.9593 8.80879 14.7463 8.82944L14.6663 8.83333H8.83292V14.6667C8.83281 14.8807 8.75038 15.0864 8.60269 15.2413C8.45501 15.3962 8.2534 15.4883 8.03963 15.4986C7.82587 15.5089 7.61635 15.4366 7.45447 15.2966C7.2926 15.1566 7.19079 14.9597 7.17014 14.7467L7.16625 14.6667V8.83333H1.33292C1.11891 8.83323 0.913147 8.75079 0.758262 8.60311C0.603378 8.45542 0.511248 8.25381 0.500964 8.04005C0.490679 7.82628 0.563028 7.61676 0.703019 7.45489C0.84301 7.29302 1.03991 7.19121 1.25292 7.17056L1.33292 7.16667H7.16625V1.33333C7.16625 1.11232 7.25405 0.900358 7.41033 0.744078C7.56661 0.587797 7.77857 0.5 7.99959 0.5Z" fill="#A3A3A3"/>
</svg>
