<svg width="16" height="16" viewBox="0 0 16 16" fill="none" xmlns="http://www.w3.org/2000/svg">
<path d="M7.99479 14.6654C4.31289 14.6654 1.32812 11.6806 1.32812 7.9987C1.32812 4.3168 4.31289 1.33203 7.99479 1.33203C11.6767 1.33203 14.6615 4.3168 14.6615 7.9987C14.6615 11.6806 11.6767 14.6654 7.99479 14.6654ZM7.99479 13.332C10.9403 13.332 13.3281 10.9442 13.3281 7.9987C13.3281 5.05318 10.9403 2.66536 7.99479 2.66536C5.04927 2.66536 2.66146 5.05318 2.66146 7.9987C2.66146 10.9442 5.04927 13.332 7.99479 13.332ZM8.66146 7.9987H11.3281V9.33203H7.32812V4.66536H8.66146V7.9987Z" fill="#A3A3A3"/>
</svg>
