<svg width="120" height="120" viewBox="0 0 120 120" fill="none" xmlns="http://www.w3.org/2000/svg">
<g opacity="0.5" clip-path="url(#clip0_1109_47388)">
<g clip-path="url(#clip1_1109_47388)">
<path d="M89.8108 48.9038C93.347 57.1968 95.5139 64.7832 95.6025 72.8562C95.6487 77.0627 95.1212 81.1745 93.1922 84.9907C91.9522 87.4453 90.2761 89.6217 87.7914 90.9389C86.8389 91.4432 84.2321 92.8274 82.3485 93.0501C58.3805 95.9168 34.4105 98.7887 10.4453 101.671C8.76788 101.874 7.16977 101.847 6.14194 100.259C5.05927 98.5848 5.70552 97.099 6.72625 95.611C20.6431 75.333 34.5349 55.0366 48.4482 34.7601C49.9287 32.5991 51.433 30.4444 53.0654 28.3972C56.3739 24.2495 60.7307 22.9679 65.8184 24.1619C70.4299 25.2432 74.1237 27.9397 77.4793 31.1368C81.2483 34.732 84.3322 38.8727 86.8685 43.4134C88.0457 45.5174 89.1487 47.663 89.8108 48.9038ZM48.9631 45.3348C37.7175 61.7489 26.5106 78.1078 15.1931 94.6256C33.8605 92.3892 52.2747 90.1811 70.6733 87.9758C57.6119 76.6803 51.0512 62.2289 48.965 45.3298L48.9631 45.3348ZM64.741 71.6669C67.6388 76.1099 70.8172 80.141 75.158 83.0303C76.8433 84.153 78.7921 85.015 80.7467 85.558C83.4867 86.3208 85.63 85.3075 87.0305 82.8151C87.7543 81.5225 88.3798 80.0755 88.6258 78.6286C89.7203 72.1424 89.3742 65.7745 86.5301 59.7088C85.5822 57.684 84.693 55.6204 83.5859 53.6834C81.8034 50.5706 79.5879 47.7644 76.617 45.6869C75.491 44.9015 74.1841 44.3064 72.8784 43.8753C71.6134 43.4597 70.6488 44.0031 70.2298 45.2697C69.8861 46.317 69.6716 47.4461 69.6379 48.5453C69.5495 51.5208 70.2299 54.3945 71.3727 57.113C72.4689 59.7172 73.7971 62.2266 75.0004 64.7873C75.6133 66.088 75.4823 66.8171 74.359 67.7053C73.8009 68.1478 73.0917 68.4214 72.4188 68.6915C69.8948 69.6929 67.355 70.6591 64.7425 71.6704L64.741 71.6669ZM74.9072 37.6776C72.5694 35.1368 70.289 33.0092 67.4609 31.6317C66.0714 30.9553 64.5285 30.4272 63.0023 30.2208C60.2961 29.8563 57.3518 32.0363 56.6049 34.6511C55.4755 38.6048 55.2163 42.6182 55.6581 46.6993C56.1801 51.5292 57.4682 56.1657 59.1667 60.6913C59.848 62.5057 60.7291 64.248 61.5176 66.0189C63.5139 65.244 65.3608 64.5314 67.0798 63.8631C66.1503 61.3112 65.167 58.9225 64.4094 56.4629C63.24 52.6805 62.7182 48.8081 63.6102 44.88C64.3297 41.7205 65.9339 39.1837 69.0675 37.9025C70.874 37.1657 72.7567 37.2345 74.9072 37.6776Z" fill="#00C4EF"/>
<path d="M94.1645 40.0872C92.6207 40.5425 91.0544 39.9996 90.292 38.6853C89.5265 37.364 89.7923 35.6679 91.0751 34.6074C92.3919 33.5191 93.8004 32.5419 95.1744 31.5251C97.8922 29.5093 100.591 27.4598 103.351 25.5011C104.066 24.9931 104.948 24.5875 105.805 24.4551C107.136 24.2421 108.313 25.0471 108.85 26.2253C109.398 27.4282 109.142 28.9091 108.077 29.881C107.284 30.6098 106.378 31.2196 105.509 31.8639C102.254 34.2749 99.0012 36.6808 95.7365 39.0793C95.2335 39.4467 94.6867 39.7535 94.1575 40.0903L94.1645 40.0872Z" fill="#00C4EF"/>
<path d="M98.2839 45.507C101.767 44.3657 105.25 43.2157 108.735 42.0813C110.413 41.5371 112.326 42.4613 112.855 44.0481C113.42 45.7331 112.492 47.61 110.765 48.1848C107.151 49.3806 103.532 50.5573 99.9119 51.7219C98.1737 52.2806 96.3226 51.43 95.7467 49.8428C95.1383 48.1731 96.0219 46.396 97.8008 45.701C97.9623 45.6375 98.1302 45.5881 98.2984 45.5301C98.2952 45.5231 98.2921 45.516 98.289 45.509L98.2839 45.507Z" fill="#00C4EF"/>
<path d="M88.2045 28.9049C86.7024 29.5864 85.5957 29.5644 84.57 28.8146C83.5075 28.0389 83.1143 26.9568 83.3439 25.6818C83.4289 25.2094 83.611 24.7276 83.8604 24.3213C85.6811 21.3422 87.4788 18.3397 89.4119 15.433C89.8927 14.7127 90.7704 14.1068 91.5951 13.7987C92.7672 13.3612 93.8827 13.839 94.6847 14.8066C95.5212 15.8137 95.6362 16.9817 95.1177 18.1575C94.7817 18.9188 94.3067 19.6238 93.8678 20.334C92.4422 22.6561 91.0233 24.9838 89.5507 27.2762C89.1094 27.9621 88.5036 28.544 88.201 28.9065L88.2045 28.9049Z" fill="#00C4EF"/>
</g>
</g>
<defs>
<clipPath id="clip0_1109_47388">
<rect width="120" height="120" fill="white"/>
</clipPath>
<clipPath id="clip1_1109_47388">
<rect width="124" height="72.8584" fill="white" transform="translate(-13.4531 56.3672) rotate(-24)"/>
</clipPath>
</defs>
</svg>
