<svg width="16" height="16" viewBox="0 0 16 16" fill="none" xmlns="http://www.w3.org/2000/svg">
<path d="M4.66146 2.66536V13.332H11.3281V2.66536H4.66146ZM3.99479 1.33203H11.9948C12.363 1.33203 12.6615 1.63051 12.6615 1.9987V13.9987C12.6615 14.3669 12.363 14.6654 11.9948 14.6654H3.99479C3.6266 14.6654 3.32812 14.3669 3.32812 13.9987V1.9987C3.32812 1.63051 3.6266 1.33203 3.99479 1.33203ZM7.99479 11.332C8.36299 11.332 8.66146 11.6305 8.66146 11.9987C8.66146 12.3669 8.36299 12.6654 7.99479 12.6654C7.62659 12.6654 7.32812 12.3669 7.32812 11.9987C7.32812 11.6305 7.62659 11.332 7.99479 11.332Z" fill="#A3A3A3"/>
</svg>
