<svg width="44" height="44" viewBox="0 0 44 44" fill="none" xmlns="http://www.w3.org/2000/svg">
<path d="M30.8382 14.6099C30.3274 14.0989 29.721 13.6935 29.0535 13.417C28.3861 13.1404 27.6707 12.998 26.9482 12.998C26.2257 12.998 25.5103 13.1404 24.8428 13.417C24.1754 13.6935 23.5689 14.0989 23.0582 14.6099L21.9982 15.6699L20.9382 14.6099C19.9065 13.5782 18.5072 12.9986 17.0482 12.9986C15.5891 12.9986 14.1899 13.5782 13.1582 14.6099C12.1265 15.6416 11.5469 17.0408 11.5469 18.4999C11.5469 19.9589 12.1265 21.3582 13.1582 22.3899L14.2182 23.4499L21.9982 31.2299L29.7782 23.4499L30.8382 22.3899C31.3492 21.8791 31.7545 21.2727 32.0311 20.6052C32.3076 19.9378 32.45 19.2224 32.45 18.4999C32.45 17.7774 32.3076 17.062 32.0311 16.3945C31.7545 15.7271 31.3492 15.1206 30.8382 14.6099Z" stroke="#222222" stroke-width="2" stroke-linecap="round" stroke-linejoin="round"/>
</svg>
