<svg width="17" height="18" viewBox="0 0 17 18" fill="none" xmlns="http://www.w3.org/2000/svg">
<path d="M0 9C0 4.30558 3.80558 0.5 8.5 0.5C13.1944 0.5 17 4.30558 17 9C17 13.6944 13.1944 17.5 8.5 17.5H1C0.447715 17.5 0 17.0523 0 16.5V9Z" fill="#7354FF"/>
<path opacity="0.9" d="M7.89554 7.39999L7.3522 10.3121C7.33208 10.3889 7.36729 10.4274 7.45785 10.4274H9.01241C9.09291 10.4274 9.14322 10.3889 9.16334 10.3121L9.70668 7.39999C9.72681 7.3231 9.69159 7.28466 9.60103 7.28466H8.04647C7.96598 7.28466 7.91567 7.3231 7.89554 7.39999ZM4.69587 11.6672C4.51475 11.6672 4.35879 11.6095 4.22799 11.4942C4.10725 11.3692 4.04688 11.2203 4.04688 11.0473C4.04688 10.8743 4.10725 10.7301 4.22799 10.6148C4.35879 10.4899 4.51475 10.4274 4.69587 10.4274H5.69199C5.77249 10.4274 5.8228 10.3889 5.84292 10.3121L6.38626 7.39999C6.40639 7.3231 6.37117 7.28466 6.28061 7.28466H5.45051C5.26939 7.28466 5.11343 7.227 4.98263 7.11167C4.86189 6.98673 4.80152 6.83776 4.80152 6.66477C4.80152 6.49177 4.86189 6.34761 4.98263 6.23228C5.11343 6.10734 5.26939 6.04487 5.45051 6.04487H6.507C6.5875 6.04487 6.63781 6.00643 6.65793 5.92954L6.9296 4.44467C6.96985 4.24285 7.07047 4.07466 7.23146 3.94011C7.40251 3.80556 7.59872 3.73828 7.82008 3.73828C8.02132 3.73828 8.18231 3.81036 8.30305 3.95452C8.43385 4.09869 8.47913 4.26207 8.43889 4.44467L8.16721 5.92954C8.14709 6.00643 8.18231 6.04487 8.27286 6.04487H9.82742C9.90792 6.04487 9.95823 6.00643 9.97835 5.92954L10.25 4.44467C10.2903 4.24285 10.3909 4.07466 10.5519 3.94011C10.7229 3.80556 10.9191 3.73828 11.1405 3.73828C11.3417 3.73828 11.5027 3.81036 11.6235 3.95452C11.7543 4.09869 11.7996 4.26207 11.7593 4.44467L11.4876 5.92954C11.4675 6.00643 11.5027 6.04487 11.5933 6.04487H12.3026C12.4838 6.04487 12.6347 6.10734 12.7554 6.23228C12.8862 6.34761 12.9516 6.49177 12.9516 6.66477C12.9516 6.83776 12.8862 6.98673 12.7554 7.11167C12.6347 7.227 12.4838 7.28466 12.3026 7.28466H11.3669C11.2864 7.28466 11.2361 7.3231 11.216 7.39999L10.6726 10.3121C10.6525 10.3889 10.6877 10.4274 10.7783 10.4274H11.548C11.7291 10.4274 11.88 10.4899 12.0008 10.6148C12.1316 10.7301 12.197 10.8743 12.197 11.0473C12.197 11.2203 12.1316 11.3692 12.0008 11.4942C11.88 11.6095 11.7291 11.6672 11.548 11.6672H10.5519C10.4714 11.6672 10.4211 11.7056 10.401 11.7825L10.0689 13.5557C10.0287 13.7575 9.92301 13.9257 9.75196 14.0603C9.59097 14.1948 9.39979 14.2621 9.17843 14.2621C8.9772 14.2621 8.81117 14.19 8.68037 14.0458C8.55963 13.9017 8.51938 13.7383 8.55963 13.5557L8.89167 11.7825C8.91179 11.7056 8.87658 11.6672 8.78602 11.6672H7.23146C7.15096 11.6672 7.10065 11.7056 7.08053 11.7825L6.74849 13.5557C6.70824 13.7575 6.60259 13.9257 6.43154 14.0603C6.27055 14.1948 6.07937 14.2621 5.85801 14.2621C5.65678 14.2621 5.49075 14.19 5.35995 14.0458C5.23921 13.9017 5.19896 13.7383 5.23921 13.5557L5.57125 11.7825C5.59137 11.7056 5.55616 11.6672 5.4656 11.6672H4.69587Z" fill="white"/>
</svg>
