<svg width="14" height="14" viewBox="0 0 14 14" fill="none" xmlns="http://www.w3.org/2000/svg">
<path fill-rule="evenodd" clip-rule="evenodd" d="M7 13.4173C7 13.4173 12.25 9.91732 12.25 5.83398C12.25 4.4416 11.6969 3.10624 10.7123 2.12167C9.72774 1.13711 8.39239 0.583984 7 0.583984C5.60761 0.583984 4.27226 1.13711 3.28769 2.12167C2.30312 3.10624 1.75 4.4416 1.75 5.83398C1.75 9.91732 7 13.4173 7 13.4173ZM8.75 5.83398C8.75 6.80048 7.9665 7.58398 7 7.58398C6.0335 7.58398 5.25 6.80048 5.25 5.83398C5.25 4.86749 6.0335 4.08398 7 4.08398C7.9665 4.08398 8.75 4.86749 8.75 5.83398Z" fill="white"/>
</svg>
