<svg width="20" height="20" viewBox="0 0 20 20" fill="none" xmlns="http://www.w3.org/2000/svg">
<path d="M15.4812 11.4262C15.897 11.4262 16.2295 11.0728 16.2295 10.6778C16.2295 10.2621 15.897 9.92958 15.4812 9.92958C15.0655 9.92958 14.733 10.2621 14.733 10.6778C14.733 11.0936 15.0655 11.4262 15.4812 11.4262ZM11.7932 11.4262C12.2089 11.4262 12.5415 11.0728 12.5415 10.6778C12.5415 10.2621 12.2089 9.92958 11.7932 9.92958C11.3775 9.92958 11.0449 10.2621 11.0449 10.6778C11.0449 11.0936 11.3775 11.4262 11.7932 11.4262ZM17.266 15.6263C17.1636 15.6877 17.1022 15.7902 17.1227 15.9335C17.1227 15.9744 17.1227 16.0154 17.1431 16.0563C17.225 16.4045 17.3887 16.9575 17.3887 16.978C17.3887 17.0394 17.4092 17.0803 17.4092 17.1213C17.4092 17.2238 17.3274 17.3057 17.225 17.3057C17.184 17.3057 17.1636 17.2852 17.1227 17.2647L15.9152 16.5683C15.8333 16.5274 15.731 16.4864 15.6286 16.4864C15.5673 16.4864 15.5059 16.4864 15.465 16.5069C14.8919 16.6707 14.2984 16.7527 13.664 16.7527C10.6145 16.7527 8.15858 14.7047 8.15858 12.1652C8.15858 9.62575 10.6145 7.57774 13.664 7.57774C16.7134 7.57774 19.1693 9.62575 19.1693 12.1652C19.1693 13.5373 18.4325 14.7866 17.266 15.6263ZM13.8965 6.74798C13.8193 6.74561 13.7418 6.74441 13.664 6.74441C10.185 6.74441 7.32525 9.128 7.32525 12.1652C7.32525 12.6266 7.39123 13.0728 7.51534 13.4979H7.44105C6.70259 13.4979 5.96413 13.3752 5.2872 13.1913C5.22567 13.1708 5.16413 13.1708 5.1026 13.1708C4.97951 13.1708 4.85644 13.2118 4.75387 13.2731L3.29747 14.1112C3.25645 14.1317 3.21541 14.1521 3.17439 14.1521C3.05131 14.1521 2.94875 14.0499 2.94875 13.9272C2.94875 13.8659 2.96926 13.825 2.98978 13.7637C3.01029 13.7432 3.1949 13.0687 3.29747 12.6598C3.29747 12.6189 3.31798 12.5576 3.31798 12.5167C3.31798 12.3532 3.23593 12.2305 3.13336 12.1487C1.71799 11.1471 0.835938 9.65483 0.835938 7.99897C0.835938 4.95307 3.81029 2.5 7.46156 2.5C10.5982 2.5 13.2353 4.30713 13.8965 6.74798ZM9.6017 7.0967C10.079 7.0967 10.457 6.69893 10.457 6.2415C10.457 5.76417 10.079 5.3863 9.6017 5.3863C9.12437 5.3863 8.74654 5.76417 8.74654 6.2415C8.74654 6.71882 9.12437 7.0967 9.6017 7.0967ZM5.21883 7.0967C5.69615 7.0967 6.07403 6.69893 6.07403 6.2415C6.07403 5.76417 5.69615 5.3863 5.21883 5.3863C4.74151 5.3863 4.36363 5.76417 4.36363 6.2415C4.36363 6.71882 4.74151 7.0967 5.21883 7.0967Z" fill="white"/>
</svg>
