<svg width="375" height="534" viewBox="0 0 375 534" fill="none" xmlns="http://www.w3.org/2000/svg">
<mask id="mask0_2219_49137" style="mask-type:alpha" maskUnits="userSpaceOnUse" x="-85" y="0" width="546" height="534">
<rect x="5.76562" width="463.908" height="449" transform="rotate(11.6624 5.76562 0)" fill="url(#paint0_linear_2219_49137)"/>
</mask>
<g mask="url(#mask0_2219_49137)">
<g clip-path="url(#clip0_2219_49137)">
<path d="M456.287 95.6757L7.19531 2.98047L-83.2344 441.097L365.858 533.792L456.287 95.6757Z" fill="#A1C0FC"/>
<path d="M442.827 146.043C442.827 146.043 442.896 146.013 442.939 146.022L448.59 147.188C449.845 142.54 451.049 137.881 452.175 133.207L437.625 130.249L436.818 130.082L350.229 112.254L357.844 75.358L347.487 73.2201L339.871 110.116L204.64 82.2753L212.269 45.3104L201.912 43.1726L194.282 80.1374L78.5756 56.3087L86.216 19.2923L75.8583 17.1544L68.2144 54.188L4.24021 41.0192C3.34744 43.0019 2.4049 44.9653 1.44519 46.9252C0.253835 49.3567 -0.840998 51.7543 -1.83277 54.1733L65.355 68.0412C65.3979 68.0501 65.4373 68.0761 65.4628 68.1262L83.7308 107.643C83.7308 107.643 83.7456 107.744 83.7196 107.784C83.6918 107.832 83.6435 107.849 83.5902 107.846L-11.5786 101.303C-12.1873 104.079 -12.8837 106.845 -13.6849 109.599L31.3798 112.606C31.3798 112.606 31.4571 112.622 31.4844 112.663C31.5134 112.696 31.5235 112.734 31.5146 112.777L23.4259 164.243C23.4259 164.243 23.3927 164.316 23.3617 164.337C23.3306 164.357 23.2841 164.366 23.2497 164.359L10.6335 161.71L-18.6962 155.656C-18.7631 155.633 -18.8126 155.569 -18.807 155.499C-18.807 155.499 -23.2598 161.367 -23.9127 165.181L76.0487 185.814C76.1003 185.824 77.6568 186.092 78.3977 187.839C79.0807 189.475 77.696 191.195 77.6371 191.264L47.1698 215.796C47.1698 215.796 46.2036 216.573 44.6234 216.246L40.2175 215.337L-29.1601 200.972C-30.4484 200.706 -31.8811 199.882 -33.3718 198.688C-34.2449 202.224 -34.8929 205.797 -35.4808 209.383L-35.1888 209.443L-33.5827 209.775C-33.5827 209.775 -33.6171 209.768 -33.6343 209.764L-31.719 210.16C-31.4614 210.213 -31.2159 210.281 -30.9668 210.333L-8.71961 214.996L-0.354418 216.723C-1.18711 221.798 -1.43895 230.307 3.16922 239.433C9.89813 252.732 24.3739 262.596 46.1974 268.748C62.0117 273.213 72.4893 280.757 77.3388 291.187C84.5325 306.658 77.1647 323.96 76.7722 324.864L-15.8803 455.278C-12.6136 455.46 -9.36497 455.772 -6.12014 456.146L84.5771 328.48L87.0008 325.068L112.107 289.722C129.896 319.191 179.581 400.983 210.094 450.889L147.751 485.39C152.4 486.466 157.058 487.544 161.704 488.637L215.109 459.088C224.838 474.984 231.943 486.507 234.294 490.171C237.859 495.715 239.486 501.629 239.97 507.308C242.385 507.887 244.789 508.473 247.204 509.052C247.027 500.016 244.974 492.393 241.065 486.303C238.678 482.596 231.616 471.127 221.941 455.313L261.63 433.347C270.497 447.436 278.117 459.494 282.876 467.022L283.587 468.136L283.768 468.388L273.04 483.922L269.144 489.565L254.48 510.804C257.585 511.553 260.688 512.31 263.793 513.058L280.616 490.598L285.052 484.682L290.79 477.01L290.971 477.262L290.922 477.324L290.984 477.283C296.624 485.709 317.495 513.263 354.172 522.418C354.131 522.401 354.092 522.374 354.052 522.348C354.147 522.368 354.227 522.411 354.322 522.431C356.34 522.848 358.319 521.501 358.748 519.423C358.793 519.208 358.809 518.996 358.824 518.794C358.844 518.395 358.8 518.001 358.697 517.63C358.376 516.409 357.464 515.406 356.237 515.018L356.254 515.022C356.159 515.002 356.069 514.965 355.974 514.946C355.94 514.939 355.905 514.932 355.862 514.923L355.845 514.919C341.106 511.188 327.247 503.411 314.619 491.752C304.355 482.264 298.178 473.145 296.366 470.299L296.342 470.33L296.157 470.095L296.256 469.963C296.256 469.963 296.256 469.963 296.267 469.956C299.448 466.342 303.532 461.391 308.254 455.65C319.953 441.445 335.968 421.989 352.646 405.696C352.679 405.667 352.735 405.652 352.778 405.661L356.609 406.451C356.678 406.465 356.72 406.474 356.789 406.488C357.308 406.578 361.774 407.455 362.09 411.263C362.373 414.706 364.473 434.597 366.642 454.977C366.669 454.974 366.697 454.971 366.716 454.966C366.696 455.15 366.693 455.337 366.7 455.518C366.711 455.771 366.73 456.025 366.778 456.268C367.102 457.911 368.351 459.279 370.051 459.63C370.24 459.669 370.427 459.672 370.613 459.683C371.666 455.406 372.889 451.172 374.263 446.987C372.384 429.282 370.729 413.529 370.489 410.57C369.818 402.498 362.648 399.012 358.501 398.237C358.45 398.226 358.412 398.191 358.394 398.152C358.377 398.103 358.379 398.05 358.413 398.013C364.26 389.817 370.202 380.334 376.069 369.824C376.097 369.776 376.147 369.751 376.192 369.751C376.243 369.761 376.295 369.772 376.32 369.822L390.141 394.273C390.141 394.273 390.142 394.264 390.153 394.257C390.158 394.276 390.17 394.305 390.173 394.333C390.252 394.555 390.351 394.773 390.47 394.976C391.081 390.455 391.771 385.941 392.565 381.44L380.962 360.912C380.962 360.912 380.937 360.818 380.956 360.768C384.196 354.613 387.451 348.086 390.631 341.355C391.915 338.647 393.179 335.908 394.497 332.993C395.556 330.901 398.579 326.188 404.409 325.753C404.992 322.927 405.61 320.109 406.234 317.3C405.906 317.286 405.567 317.279 405.235 317.282C403.954 317.286 402.675 317.408 401.433 317.653C401.416 317.649 401.397 317.654 401.372 317.649C401.337 317.642 401.313 317.628 401.284 317.595C401.248 317.552 401.242 317.497 401.261 317.447C402.741 313.92 404.157 310.443 405.473 307.105C405.494 307.047 405.546 307.013 405.608 307.017C405.671 307.012 405.719 307.04 405.741 307.107L407.584 311.195C408.86 305.53 410.154 299.869 411.373 294.184L410.797 294.065C410.797 294.065 410.723 294.032 410.703 294.001C410.682 293.97 410.674 293.924 410.681 293.889L421.098 253.963C421.114 253.885 421.195 253.839 421.273 253.855L423.806 254.378C424.045 253.568 424.267 252.754 424.497 251.942C424.857 249.285 425.218 246.629 425.595 243.976L423.491 243.541C423.414 243.525 423.366 243.453 423.373 243.374L432.173 200.221C432.173 200.221 432.197 200.145 432.23 200.116C432.261 200.096 432.299 200.086 432.342 200.095L433.828 200.401C434.493 197.745 435.185 195.085 435.893 192.437L433.385 191.92C433.308 191.904 433.258 191.84 433.265 191.761L442.744 146.187C442.744 146.187 442.768 146.112 442.801 146.083L442.827 146.043ZM349.156 126.736C349.156 126.736 349.239 126.681 349.29 126.692L434.926 144.368C435.003 144.384 435.051 144.456 435.044 144.535L425.79 189.367C425.79 189.367 425.774 189.444 425.733 189.472C425.702 189.492 425.655 189.5 425.621 189.493L354.802 156.69L349.127 126.873C349.119 126.827 349.13 126.775 349.164 126.738L349.156 126.736ZM379.697 177.328L379.722 177.208L361.569 189.239C361.538 189.259 361.5 189.269 361.457 189.26C361.457 189.26 361.44 189.257 361.431 189.255C361.388 189.246 361.352 189.203 361.344 189.156L361.272 188.855L356.501 166.201C356.484 166.152 356.503 166.103 356.529 166.063C356.564 166.026 356.612 166.009 356.664 166.019L380.237 176.929C380.297 176.941 379.707 177.151 379.714 177.206C379.729 177.263 379.732 177.291 379.689 177.326L379.697 177.328ZM335.016 123.746L339.602 124.692C339.654 124.703 339.698 124.748 339.713 124.805L355.006 197.259C355.006 197.259 355.028 197.327 355.021 197.361C355.005 197.438 354.931 197.494 354.845 197.477C354.845 197.477 354.845 197.477 354.837 197.475L255.415 162.295C255.355 162.283 255.312 162.229 255.308 162.166C255.303 162.102 255.332 162.046 255.391 162.022L334.923 123.762C334.923 123.762 334.98 123.747 335.014 123.754L335.016 123.746ZM291.296 114.874C291.312 114.797 291.387 114.74 291.472 114.758L319.806 120.606C319.866 120.619 319.917 120.674 319.924 120.729C319.929 120.793 319.899 120.849 319.839 120.882L287.065 136.548C287.065 136.548 286.999 136.561 286.973 136.556C286.956 136.552 286.93 136.547 286.917 136.526C286.871 136.49 286.855 136.433 286.866 136.381L291.307 114.867L291.296 114.874ZM257.518 107.902C257.534 107.824 257.617 107.77 257.694 107.786L282.936 112.996C283.013 113.012 283.059 113.093 283.043 113.17L277.257 141.203C277.248 141.246 277.213 141.284 277.174 141.302L248.06 154.85C248.06 154.85 247.995 154.863 247.969 154.858C247.952 154.854 247.926 154.849 247.913 154.828C247.866 154.792 247.851 154.735 247.862 154.683L257.52 107.893L257.518 107.902ZM357.431 206.902L364.801 232.753C364.809 232.799 364.799 232.851 364.764 232.888C364.73 232.926 364.681 232.943 364.63 232.932L363.616 232.723L212.808 210.415C210.412 209.921 208.992 207.953 209.445 205.754C209.453 205.72 209.976 200.232 209.285 195.773C208.747 192.304 207.626 189.449 207.615 189.42C207.567 189.302 206.616 186.536 210.607 183.859L212.816 182.399L244.622 167.518L357.42 206.909L357.431 206.902ZM201.477 248.613L201.564 248.192L204.798 229.876L205.689 224.867L205.62 224.852L206.079 222.019C206.553 219.726 208.799 218.256 211.084 218.727L363.427 240.626C365.66 241.087 367.135 243.308 366.855 245.793L366.838 245.79C366.32 249.166 364.553 258.902 361.076 276.397C360.629 278.562 358.272 280.699 355.893 280.208L201.461 248.601L201.477 248.613ZM222.529 263.838L221.534 264.322C210.767 268.851 202.947 275.717 198.269 284.717C197.11 286.95 196.13 289.353 195.37 291.865C195.356 291.933 195.283 291.981 195.206 291.965C195.125 291.966 195.086 291.896 195.083 291.823C195.026 288.758 195.185 285.558 195.551 282.312L197.61 270.425L197.703 269.978C201.515 266.95 208.053 260.957 208.121 260.891L208.299 260.722C208.299 260.722 208.38 260.676 208.432 260.686L222.496 263.562C222.556 263.575 222.601 263.62 222.614 263.685C222.619 263.749 222.589 263.805 222.531 263.829L222.529 263.838ZM366.917 210.006C388.647 217.697 400.985 223.861 403.003 226.06C405.971 229.296 409.14 235.977 411.376 241.372L373.724 233.6C373.664 233.588 373.619 233.543 373.613 233.488L366.919 209.998L366.917 210.006ZM204.909 96.8908L248.573 105.903C248.874 105.965 249.083 106.08 249.176 106.234C249.258 106.358 249.244 106.472 249.238 106.497L237.95 161.189L237.881 161.219L203.261 177.803C203.131 177.91 202.2 178.604 200.929 178.342C200.319 178.216 199.733 177.889 199.179 177.363C196.075 174.439 192.793 172.293 189.422 170.97C189.422 170.97 186.817 170.316 187.099 167.258L201.112 99.3664C201.112 99.3664 201.886 96.2668 204.918 96.8926L204.909 96.8908ZM182.419 255.353L191.308 257.188L189.551 265.699C187.189 266.859 184.713 267.575 182.522 267.301C182.366 267.278 182.201 267.253 182.038 267.219C178.13 266.413 171.667 261.802 165.938 257.718L165.876 257.669C161.395 254.479 157.059 251.497 152.992 249.333L174.361 253.743C174.361 253.743 174.443 253.733 174.526 253.724L175.385 253.901C175.385 253.901 175.292 253.918 175.255 253.919L182.419 255.353ZM122.855 81.5125C123.908 80.1895 125.655 80.5322 125.723 80.5463L189.811 93.7743C192.894 94.4108 192.391 97.3693 192.385 97.3951L178.289 165.691C178.289 165.691 177.792 168.185 175.354 168.326C170.939 168.588 167.464 169.241 165.04 170.272C165 170.291 164.004 170.694 162.878 170.461C161.968 170.274 161.239 169.729 160.733 168.837L122.424 85.0321C122.104 84.3302 121.838 82.7979 122.855 81.5125ZM73.4281 174.563C73.4121 174.641 73.3378 174.697 73.2519 174.679L31.7953 166.122C31.718 166.106 31.6685 166.043 31.6759 165.963L39.6649 113.376C39.6808 113.298 39.7448 113.249 39.8238 113.256L85.2732 116.351C85.3162 116.36 85.3591 116.369 85.3778 116.409C85.4068 116.442 85.4152 116.488 85.4063 116.531L73.4263 174.572L73.4281 174.563ZM94.388 110.586L75.6838 70.406C75.6583 70.3559 75.6707 70.2958 75.6968 70.2564C75.7332 70.2102 75.79 70.1951 75.8415 70.2057L107.112 76.6602C109.088 77.0679 109.919 79.2452 109.963 79.3349L152.902 172.378C152.902 172.378 153.902 174.474 152.317 176.036C150.18 178.147 146.37 182.33 144.842 186.653C144.835 186.688 143.816 189.28 141.161 188.741C140.311 188.565 138.971 188.289 137.571 188C134.771 187.422 131.705 186.789 131.705 186.789L81.7871 176.45C81.7098 176.434 81.6535 176.36 81.6712 176.274L94.6865 113.217C94.8673 112.341 94.7561 111.405 94.3794 110.584L94.388 110.586ZM60.9911 219.374L95.2265 190.945C95.2801 190.903 96.4568 190.017 97.8481 190.304L148.829 200.827C151.372 201.352 152.196 198.791 152.236 198.683L152.683 196.519C155.375 183.473 168.184 175.04 181.238 177.734C194.293 180.429 202.717 193.235 200.022 206.29L196.578 222.977C196.566 223.037 195.312 228.939 191.042 234.138C187.094 238.946 179.705 244.119 166.899 241.476L123.964 232.667C123.964 232.667 123.989 232.673 124.006 232.676C123.498 232.536 122.971 232.4 122.421 232.286L61.0653 219.622C61.0137 219.612 60.9693 219.567 60.9524 219.518C60.9459 219.463 60.9583 219.403 61.0015 219.367L60.9911 219.374ZM90.1414 306.034C90.1176 300.119 89.0896 293.603 86.1227 287.197C80.0498 274.061 67.497 264.728 48.8052 259.455C29.799 254.099 17.3697 245.946 11.8597 235.246C8.40285 228.524 8.52193 222.307 9.06893 218.659L123.45 242.268C123.45 242.268 126.688 242.677 128.167 245.444C129.718 248.343 128.105 252.3 128.033 252.473L123.099 259.63L90.1328 306.032L90.1414 306.034ZM117.03 282.787L131.786 262.014C131.51 262.396 137.164 253.22 144.095 254.651C148.362 255.541 155.066 260.327 160.984 264.539C168.47 269.872 175.503 274.888 181.451 275.659C183.431 275.915 185.485 275.766 187.578 275.258L187.335 276.434L187.369 276.441L186.287 282.728C184.615 297.337 186.74 310.249 192.608 321.122C196.392 328.126 205.891 343.841 217.503 362.678L178.573 384.219C153.545 343.092 128.137 301.206 117.03 282.787ZM216.918 447.113C207.204 431.229 195.552 412.106 183.569 392.422L222.559 370.849C233.444 388.435 245.627 407.891 256.505 425.206L216.918 447.113ZM306.582 435.337L288.92 460.909L288.587 460.482C284.165 453.49 220.883 353.373 203.004 322.426C202.04 319.415 197.689 303.841 204.832 290.102C209.527 281.06 218.39 274.651 231.173 271.066C237.917 268.76 248.829 270.69 248.932 270.711L356.983 293.014C356.983 293.014 357.057 293.047 357.078 293.078C357.098 293.109 357.108 293.147 357.099 293.19L356.793 294.542C347.809 337.549 331.803 396.872 306.572 435.343L306.582 435.337ZM338.226 409.659L318.141 431.83C318.106 431.868 318.049 431.883 318.006 431.874C317.989 431.871 317.972 431.867 317.957 431.855C317.893 431.815 317.873 431.739 317.906 431.666C320.901 425.443 323.338 421.012 326.154 415.871C328.278 412.002 330.676 407.626 333.687 401.801C333.717 401.744 333.788 401.705 333.848 401.717L343.184 403.644C343.235 403.655 343.273 403.69 343.29 403.738C343.306 403.786 343.296 403.838 343.259 403.884C341.577 405.918 339.886 407.862 338.228 409.651L338.226 409.659ZM398.844 301.609C398.643 302.15 378.588 356.581 349.245 396.228C349.217 396.276 349.159 396.299 349.099 396.287L337.152 393.821C337.109 393.812 337.07 393.786 337.051 393.746C337.032 393.707 337.031 393.671 337.05 393.621C345.202 373.258 352.589 349.227 359.654 320.16C361.863 311.061 363.874 302.146 365.648 293.808C365.628 293.777 365.618 293.739 365.627 293.696L365.643 293.619L399.09 300.46C399.09 300.46 399.164 300.493 399.191 300.535C399.212 300.566 399.211 300.61 399.202 300.653L398.842 301.618L398.844 301.609ZM402.543 292.407C402.527 292.484 402.455 292.532 402.369 292.514L367.434 285.07C367.434 285.07 367.467 285.041 367.486 285.036C372.209 261.978 374.906 245.181 374.939 244.937C374.955 244.859 375.029 244.803 375.106 244.819C375.106 244.819 375.115 244.821 375.124 244.822L412.329 252.502C412.329 252.502 412.403 252.535 412.423 252.566C412.444 252.597 412.452 252.644 412.445 252.678L402.552 292.408L402.543 292.407ZM417.397 231.681C415.276 227.25 412.698 222.688 409.958 219.696C403.927 213.123 375.51 202.951 363.766 198.942L363.335 197.429L363.31 197.29C363.31 197.29 363.301 197.243 363.305 197.226L363.378 196.874C363.378 196.874 363.409 196.809 363.44 196.788L388.204 180.364C388.204 180.364 388.273 180.334 388.316 180.343L424.611 197.424C424.688 197.44 424.736 197.513 424.728 197.592L417.393 231.698L417.397 231.681Z" fill="white"/>
<path d="M356.927 206.592L359.885 197.64L356.927 206.592Z" fill="white"/>
</g>
</g>
<defs>
<linearGradient id="paint0_linear_2219_49137" x1="237.72" y1="0" x2="237.72" y2="449" gradientUnits="userSpaceOnUse">
<stop stop-color="#D9D9D9" stop-opacity="0"/>
<stop offset="0.48" stop-color="#C9C9C9" stop-opacity="0.33"/>
<stop offset="1" stop-color="#737373" stop-opacity="0"/>
</linearGradient>
<clipPath id="clip0_2219_49137">
<rect width="462.365" height="460.269" fill="white" transform="translate(6.95312 2.93164) rotate(11.6624)"/>
</clipPath>
</defs>
</svg>
