<svg width="34" height="18" viewBox="0 0 34 18" fill="none" xmlns="http://www.w3.org/2000/svg">
<path d="M2.73913 13.5217L2.3913 5.86957M10.0435 1L12.1304 3.43478M7.8284 5.80289L15.1339 4.13363C15.2543 4.10567 15.3134 4.2689 15.2008 4.31877C14.3946 4.67544 13.4183 5.19912 12.9806 5.79382C12.1696 6.89709 11.8665 7.60062 11.9012 9.56988C11.935 11.5391 10.9666 13.4253 9.92738 14.5882C8.99992 15.6258 7.51977 16.1789 5.86957 16.3043M18.0435 1.69565L18.3913 9M21.1264 2.04348C21.1264 2.04348 20.7934 13.6913 20.4878 15.1433C20.4189 15.4726 20.737 15.7342 21.0135 15.5451L24.6522 13.0201M17.6957 12.1304L24.6522 10.3913M25.3478 2.26714L29.7248 1.01487C30.0635 0.918242 30.3407 1.31184 30.1608 1.63551L28.1946 5.17391M26.7391 3.78261L29.8696 6.91304M25 8.3259C25 8.3259 30.3598 6.06219 32.1494 6.22586C33.939 6.39034 32.4242 7.44158 31.94 8.03357C31.455 8.62474 30.6676 9.34783 30.6676 9.34783M28.8549 8.65217C28.8549 8.65217 29.3906 11.2247 29.4881 12.7542C29.5855 14.2836 29.5357 16.0381 28.445 16.5741C27.3544 17.1101 25.9138 17.3048 24.3044 16.1595M1 4.23636L5.36004 3.78575C5.71839 3.74883 6.01852 4.0412 6.02897 4.43905L6.21711 11.3526C6.22831 11.7775 5.90355 12.1415 5.52204 12.1302L2.4185 12.0443M19.4348 5.52174L22.5652 4.82609M2.3913 8.30435L5.17391 7.95652M18.0435 2.82606L22.9194 1.71638C23.4555 1.5947 23.9604 2.02422 23.9565 2.598L23.9285 6.55481C23.9254 6.97225 23.6476 7.33167 23.2578 7.42273L19.5015 8.30435" stroke="#121212" stroke-width="1.73913" stroke-miterlimit="10"/>
</svg>
