<svg width="29" height="28" viewBox="0 0 29 28" fill="none" xmlns="http://www.w3.org/2000/svg">
<path d="M0.5 14C0.5 6.26801 6.76801 0 14.5 0C22.232 0 28.5 6.26801 28.5 14C28.5 21.732 22.232 28 14.5 28C6.76801 28 0.5 21.732 0.5 14Z" fill="#F5F5F5"/>
<path d="M19.8333 12H13.8333C13.097 12 12.5 12.597 12.5 13.3333V19.3333C12.5 20.0697 13.097 20.6667 13.8333 20.6667H19.8333C20.5697 20.6667 21.1667 20.0697 21.1667 19.3333V13.3333C21.1667 12.597 20.5697 12 19.8333 12Z" stroke="#222222" stroke-width="1.5" stroke-linecap="round" stroke-linejoin="round"/>
<path d="M9.83594 15.9987H9.16927C8.81565 15.9987 8.47651 15.8582 8.22646 15.6082C7.97641 15.3581 7.83594 15.019 7.83594 14.6654V8.66536C7.83594 8.31174 7.97641 7.9726 8.22646 7.72256C8.47651 7.47251 8.81565 7.33203 9.16927 7.33203H15.1693C15.5229 7.33203 15.862 7.47251 16.1121 7.72256C16.3621 7.9726 16.5026 8.31174 16.5026 8.66536V9.33203" stroke="#222222" stroke-width="1.5" stroke-linecap="round" stroke-linejoin="round"/>
</svg>
