<svg width="140" height="140" viewBox="0 0 140 140" fill="none" xmlns="http://www.w3.org/2000/svg">
<g filter="url(#filter0_d_1450_40474)">
<path d="M25.6472 82.8078C40.1629 92.1457 59.5 87.9483 68.838 73.4326C78.1759 58.9168 73.9784 39.5797 59.4627 30.2418C44.947 20.9039 25.6098 25.1013 16.2719 39.617C6.934 54.1327 11.1314 73.4699 25.6472 82.8078Z" fill="url(#paint0_radial_1450_40474)"/>
<path d="M51.1315 39.0727C50.9838 39.0967 50.8302 39.1051 50.6737 39.0956C49.5409 39.0252 48.6774 38.0511 48.7478 36.9183L49.2213 29.1964C49.2918 28.0636 50.2661 27.2017 51.3987 27.2705C52.5315 27.3409 53.395 28.315 53.3246 29.4479L52.8511 37.1697C52.7918 38.1458 52.0584 38.9217 51.1315 39.0727Z" fill="#222222"/>
<path d="M61.5925 42.2817C61.4448 42.3057 61.2912 42.3141 61.1347 42.3046C60.0018 42.2342 59.1383 41.2601 59.2088 40.1272L59.6823 32.4054C59.7527 31.2726 60.727 30.4107 61.8596 30.4795C62.9925 30.5499 63.8559 31.524 63.7855 32.6569L63.312 40.3787C63.2527 41.3548 62.5193 42.1307 61.5925 42.2817Z" fill="#222222"/>
<path d="M32.0431 48.2261C31.1325 48.3744 30.2043 47.8924 29.825 47.0061C29.3768 45.9627 29.8614 44.7541 30.9031 44.3062C34.4698 42.7771 36.7872 39.962 37.2634 36.5836C37.4219 35.4597 38.4606 34.6757 39.5844 34.8342C40.7083 34.9928 41.4923 36.0314 41.3338 37.1553C40.6535 41.9916 37.4431 45.9736 32.5233 48.0846C32.366 48.1518 32.2036 48.1983 32.0413 48.2247L32.0431 48.2261Z" fill="#222222"/>
<path d="M58.1014 56.9734C55.6033 57.3803 52.9268 57.2747 50.3107 56.6194C45.8621 55.5061 41.1201 52.4578 38.5112 49.0337C36.9046 46.9243 35.6685 43.6932 35.7571 41.8326C35.8107 40.6992 36.7718 39.8278 37.905 39.8798C39.0382 39.9319 39.9147 40.8938 39.8643 42.0268C39.839 42.5874 40.5579 44.9347 41.7827 46.5414C43.8362 49.2361 47.7532 51.7407 51.3087 52.6295C55.2238 53.6081 59.2449 53.0581 62.0675 51.1554C63.0088 50.5206 64.2873 50.7689 64.9205 51.7105C65.5554 52.6518 65.3068 53.9287 64.3655 54.5635C62.5563 55.783 60.4041 56.595 58.1008 56.9702L58.1014 56.9734Z" fill="#222222"/>
<path d="M96.4493 109.392C113.497 106.692 125.127 90.6835 122.427 73.6362C119.727 56.5888 103.719 44.958 86.6716 47.658C69.6243 50.3581 57.9935 66.3665 60.6935 83.4138C63.3936 100.461 79.402 112.092 96.4493 109.392Z" fill="url(#paint1_radial_1450_40474)"/>
<path d="M103.427 79.2705C102.896 79.357 102.333 79.237 101.868 78.8895C98.5044 76.3849 96.6222 71.7344 97.1839 67.3157C97.327 66.1893 98.3571 65.3934 99.4815 65.5351C100.608 65.6782 101.405 66.708 101.262 67.8328C100.887 70.7781 102.147 73.9688 104.323 75.5904C105.234 76.2686 105.422 77.5559 104.744 78.4678C104.412 78.9135 103.934 79.1862 103.426 79.2689L103.427 79.2705Z" fill="#222222"/>
<path d="M88.649 81.019C86.0033 81.4499 83.2271 81.3872 80.7085 80.7677C75.4022 79.4625 71.0075 75.6928 68.9504 70.6842C68.5195 69.6347 69.0203 68.4334 70.0715 68.0022C71.1226 67.5711 72.3223 68.0722 72.7534 69.1234C74.3138 72.9232 77.6539 75.7833 81.6914 76.7769C85.5779 77.7335 90.4073 76.9802 93.4332 74.9444C94.6932 74.0977 96.4283 72.4538 96.7799 71.605C97.214 70.5563 98.4176 70.0586 99.4663 70.4927C100.515 70.9267 101.014 72.1284 100.579 73.1791C99.4927 75.8003 95.7658 78.3302 95.7284 78.3563C93.7506 79.6865 91.2645 80.5963 88.6496 81.0222L88.649 81.019Z" fill="#222222"/>
<path d="M80.5015 61.7384L80.4869 61.7408L71.5423 63.151C70.4212 63.3269 69.3685 62.562 69.191 61.4412C69.0156 60.3234 69.7743 59.2734 70.8911 59.0915L70.9008 59.0899L76.4923 58.2075L71.7851 54.8619C70.8599 54.2045 70.6424 52.9202 71.2998 51.995C71.9572 51.0698 73.2415 50.8523 74.1667 51.5098L81.64 56.8208C82.5483 57.4661 82.9702 58.5837 82.7153 59.6683C82.4613 60.7477 81.592 61.5591 80.4996 61.7371L80.5015 61.7384Z" fill="#222222"/>
<path d="M99.1825 59.7405C98.9065 59.7854 98.6165 59.7744 98.3294 59.6995C96.2752 59.1593 94.102 59.1467 92.0421 59.6655C90.9404 59.9399 89.8238 59.2736 89.5464 58.1741C89.2688 57.073 89.9383 55.9558 91.0378 55.6785C93.7686 54.9921 96.652 55.0073 99.3749 55.7252C100.473 56.0145 101.128 57.1392 100.839 58.2361C100.626 59.0456 99.957 59.616 99.1795 59.7426L99.1825 59.7405Z" fill="#222222"/>
</g>
<defs>
<filter id="filter0_d_1450_40474" x="1.9" y="9.9" width="135.575" height="122.346" filterUnits="userSpaceOnUse" color-interpolation-filters="sRGB">
<feFlood flood-opacity="0" result="BackgroundImageFix"/>
<feColorMatrix in="SourceAlpha" type="matrix" values="0 0 0 0 0 0 0 0 0 0 0 0 0 0 0 0 0 0 127 0" result="hardAlpha"/>
<feOffset dy="2"/>
<feGaussianBlur stdDeviation="2.55"/>
<feComposite in2="hardAlpha" operator="out"/>
<feColorMatrix type="matrix" values="0 0 0 0 0.860533 0 0 0 0 0.943854 0 0 0 0 0.970166 0 0 0 1 0"/>
<feBlend mode="normal" in2="BackgroundImageFix" result="effect1_dropShadow_1450_40474"/>
<feBlend mode="normal" in="SourceGraphic" in2="effect1_dropShadow_1450_40474" result="shape"/>
</filter>
<radialGradient id="paint0_radial_1450_40474" cx="0" cy="0" r="1" gradientUnits="userSpaceOnUse" gradientTransform="translate(51.3538 24.8023) rotate(106.383) scale(65.3399 65.3399)">
<stop stop-color="#DBF0FF"/>
<stop offset="0.28" stop-color="#E1EFFF"/>
<stop offset="0.666667" stop-color="#C5EEFF"/>
<stop offset="1" stop-color="#CBE6FF"/>
</radialGradient>
<radialGradient id="paint1_radial_1450_40474" cx="0" cy="0" r="1" gradientUnits="userSpaceOnUse" gradientTransform="translate(77 49) rotate(64.6295) scale(65.3399 65.3399)">
<stop stop-color="#A1DDFF"/>
<stop offset="0.28" stop-color="#91EBFF"/>
<stop offset="0.666667" stop-color="#50C9FD"/>
<stop offset="1" stop-color="#3BCAF7"/>
</radialGradient>
</defs>
</svg>
