<svg width="17" height="16" viewBox="0 0 17 16" fill="none" xmlns="http://www.w3.org/2000/svg">
<path d="M12.8881 9.14093C13.2207 9.14093 13.4868 8.8582 13.4868 8.54227C13.4868 8.20967 13.2207 7.94367 12.8881 7.94367C12.5556 7.94367 12.2895 8.20967 12.2895 8.54227C12.2895 8.87487 12.5556 9.14093 12.8881 9.14093ZM9.93769 9.14093C10.2702 9.14093 10.5363 8.8582 10.5363 8.54227C10.5363 8.20967 10.2702 7.94367 9.93769 7.94367C9.60509 7.94367 9.33902 8.20967 9.33902 8.54227C9.33902 8.87487 9.60509 9.14093 9.93769 9.14093ZM14.3159 12.5011C14.234 12.5502 14.1849 12.6321 14.2013 12.7468C14.2013 12.7795 14.2013 12.8123 14.2176 12.8451C14.2832 13.1236 14.4141 13.566 14.4141 13.5824C14.4141 13.6315 14.4305 13.6643 14.4305 13.6971C14.4305 13.779 14.365 13.8445 14.2832 13.8445C14.2504 13.8445 14.234 13.8281 14.2013 13.8117L13.2353 13.2547C13.1698 13.2219 13.0879 13.1891 13.006 13.1891C12.957 13.1891 12.9078 13.1891 12.8751 13.2055C12.4166 13.3366 11.9418 13.4021 11.4343 13.4021C8.99469 13.4021 7.02999 11.7637 7.02999 9.7322C7.02999 7.7006 8.99469 6.06219 11.4343 6.06219C13.8738 6.06219 15.8386 7.7006 15.8386 9.7322C15.8386 10.8299 15.2491 11.8293 14.3159 12.5011ZM11.6204 5.39838C11.5586 5.39649 11.4966 5.39553 11.4343 5.39553C8.65115 5.39553 6.36332 7.3024 6.36332 9.7322C6.36332 10.1013 6.41611 10.4583 6.5154 10.7983H6.45596C5.86519 10.7983 5.27443 10.7002 4.73289 10.5531C4.68366 10.5367 4.63443 10.5367 4.5852 10.5367C4.48674 10.5367 4.38828 10.5694 4.30622 10.6185L3.1411 11.2889C3.10828 11.3053 3.07546 11.3217 3.04263 11.3217C2.94418 11.3217 2.86213 11.2399 2.86213 11.1418C2.86213 11.0927 2.87854 11.06 2.89495 11.0109C2.91136 10.9946 3.05905 10.4549 3.1411 10.1279C3.1411 10.0951 3.15751 10.0461 3.15751 10.0134C3.15751 9.88253 3.09187 9.7844 3.00981 9.719C1.87751 8.91767 1.17188 7.72387 1.17188 6.39917C1.17188 3.96246 3.55136 2 6.47237 2C8.98169 2 11.0914 3.44571 11.6204 5.39838ZM8.18449 5.67736C8.56636 5.67736 8.86869 5.35914 8.86869 4.9932C8.86869 4.61134 8.56636 4.30904 8.18449 4.30904C7.80262 4.30904 7.50035 4.61134 7.50035 4.9932C7.50035 5.37505 7.80262 5.67736 8.18449 5.67736ZM4.67819 5.67736C5.06005 5.67736 5.36235 5.35914 5.36235 4.9932C5.36235 4.61134 5.06005 4.30904 4.67819 4.30904C4.29633 4.30904 3.99403 4.61134 3.99403 4.9932C3.99403 5.37505 4.29633 5.67736 4.67819 5.67736Z" fill="#222222"/>
</svg>
