<svg width="15" height="13" viewBox="0 0 15 13" fill="none" xmlns="http://www.w3.org/2000/svg">
<path d="M12.6595 2.18828C12.3616 1.8902 12.0078 1.65374 11.6185 1.49241C11.2291 1.33108 10.8118 1.24805 10.3903 1.24805C9.96889 1.24805 9.55156 1.33108 9.16221 1.49241C8.77286 1.65374 8.41911 1.8902 8.12117 2.18828L7.50284 2.80661L6.8845 2.18828C6.28268 1.58646 5.46644 1.24836 4.61534 1.24836C3.76423 1.24836 2.94799 1.58646 2.34617 2.18828C1.74435 2.7901 1.40625 3.60634 1.40625 4.45745C1.40625 5.30855 1.74435 6.12479 2.34617 6.72661L2.9645 7.34495L7.50284 11.8833L12.0412 7.34495L12.6595 6.72661C12.9576 6.42867 13.194 6.07492 13.3554 5.68557C13.5167 5.29622 13.5997 4.8789 13.5997 4.45745C13.5997 4.03599 13.5167 3.61867 13.3554 3.22932C13.194 2.83997 12.9576 2.48622 12.6595 2.18828Z" stroke="#222222" stroke-width="1.05" stroke-linecap="round" stroke-linejoin="round"/>
</svg>
