<svg width="21" height="20" viewBox="0 0 21 20" fill="none" xmlns="http://www.w3.org/2000/svg">
<path d="M12.5443 1.66797H5.8776C5.43558 1.66797 5.01165 1.84356 4.69909 2.15612C4.38653 2.46868 4.21094 2.89261 4.21094 3.33464V16.668C4.21094 17.11 4.38653 17.5339 4.69909 17.8465C5.01165 18.159 5.43558 18.3346 5.8776 18.3346H15.8776C16.3196 18.3346 16.7436 18.159 17.0561 17.8465C17.3687 17.5339 17.5443 17.11 17.5443 16.668V6.66797L12.5443 1.66797Z" stroke="black" stroke-width="1.5" stroke-linecap="round" stroke-linejoin="round"/>
<path d="M12.5391 1.66797V6.66797H17.5391" stroke="black" stroke-width="1.5" stroke-linecap="round" stroke-linejoin="round"/>
<path d="M14.2057 10.832H7.53906" stroke="black" stroke-width="1.5" stroke-linecap="round" stroke-linejoin="round"/>
<path d="M14.2057 14.168H7.53906" stroke="black" stroke-width="1.5" stroke-linecap="round" stroke-linejoin="round"/>
<path d="M9.20573 7.5H8.3724H7.53906" stroke="black" stroke-width="1.5" stroke-linecap="round" stroke-linejoin="round"/>
</svg>
