<svg width="21" height="20" viewBox="0 0 21 20" fill="none" xmlns="http://www.w3.org/2000/svg">
<path d="M2.48438 7.16667H3.61458C3.70339 7.16667 3.77604 7.09401 3.77604 7.00521V3.45312H7.32813C7.41693 3.45312 7.48958 3.38047 7.48958 3.29167V2.16146C7.48958 2.07266 7.41693 2 7.32813 2H3.69531C2.93646 2 2.32292 2.61354 2.32292 3.3724V7.00521C2.32292 7.09401 2.39557 7.16667 2.48438 7.16667ZM12.8177 3.45312H16.3698V7.00521C16.3698 7.09401 16.4424 7.16667 16.5313 7.16667H17.6615C17.7503 7.16667 17.8229 7.09401 17.8229 7.00521V3.3724C17.8229 2.61354 17.2094 2 16.4505 2H12.8177C12.7289 2 12.6563 2.07266 12.6563 2.16146V3.29167C12.6563 3.38047 12.7289 3.45312 12.8177 3.45312ZM7.32813 16.0469H3.77604V12.4948C3.77604 12.406 3.70339 12.3333 3.61458 12.3333H2.48438C2.39557 12.3333 2.32292 12.406 2.32292 12.4948V16.1276C2.32292 16.8865 2.93646 17.5 3.69531 17.5H7.32813C7.41693 17.5 7.48958 17.4273 7.48958 17.3385V16.2083C7.48958 16.1195 7.41693 16.0469 7.32813 16.0469ZM17.6615 12.3333H16.5313C16.4424 12.3333 16.3698 12.406 16.3698 12.4948V16.0469H12.8177C12.7289 16.0469 12.6563 16.1195 12.6563 16.2083V17.3385C12.6563 17.4273 12.7289 17.5 12.8177 17.5H16.4505C17.2094 17.5 17.8229 16.8865 17.8229 16.1276V12.4948C17.8229 12.406 17.7503 12.3333 17.6615 12.3333ZM17.9844 9.02344H2.16146C2.07266 9.02344 2 9.09609 2 9.1849V10.3151C2 10.4039 2.07266 10.4766 2.16146 10.4766H17.9844C18.0732 10.4766 18.1458 10.4039 18.1458 10.3151V9.1849C18.1458 9.09609 18.0732 9.02344 17.9844 9.02344Z" fill="black"/>
</svg>
