<svg width="21" height="20" viewBox="0 0 21 20" fill="none" xmlns="http://www.w3.org/2000/svg">
<path d="M1.71154 8.45513H1C1 8.8479 1.31877 9.16667 1.71154 9.16667V8.45513ZM1.71154 12.25V11.5385C1.52283 11.5385 1.34184 11.6134 1.2084 11.7469C1.07497 11.8803 1 12.0613 1 12.25H1.71154ZM18.7885 8.45513V9.16667C18.9772 9.16667 19.1582 9.0917 19.2916 8.95826C19.425 8.82482 19.5 8.64384 19.5 8.45513H18.7885ZM18.7885 12.25H19.5C19.5 12.0613 19.425 11.8803 19.2916 11.7469C19.1582 11.6134 18.9772 11.5385 18.7885 11.5385V12.25ZM3.60897 4.42308H8.35256V3H3.60897V4.42308ZM8.35256 4.42308H16.891V3H8.35256V4.42308ZM16.891 16.2821H8.35256V17.7051H16.891V16.2821ZM8.35256 16.2821H3.60897V17.7051H8.35256V16.2821ZM7.64103 3.71154V16.9936H9.0641V3.71154H7.64103ZM2.55021 9.5139C2.66036 9.62402 2.74774 9.75477 2.80736 9.89867C2.86697 10.0426 2.89766 10.1968 2.89766 10.3526C2.89766 10.5083 2.86697 10.6626 2.80736 10.8065C2.74774 10.9504 2.66036 11.0811 2.55021 11.1912L3.55585 12.1969C4.0451 11.7076 4.31996 11.044 4.31996 10.3521C4.31996 9.66017 4.0451 8.99658 3.55585 8.50731L2.55021 9.5139ZM17.9498 11.1912C17.8396 11.0811 17.7523 10.9504 17.6926 10.8065C17.633 10.6626 17.6023 10.5083 17.6023 10.3526C17.6023 10.1968 17.633 10.0426 17.6926 9.89867C17.7523 9.75477 17.8396 9.62402 17.9498 9.5139L16.9442 8.50826C16.4549 8.99753 16.18 9.66112 16.18 10.353C16.18 11.045 16.4549 11.7085 16.9442 12.1978L17.9498 11.1912ZM1.71154 9.16667C2.01608 9.16667 2.31872 9.28241 2.55021 9.5139L3.55585 8.50731C3.31387 8.26476 3.0264 8.07331 2.70991 7.94209C2.39342 7.81087 2.05415 7.74341 1.71154 7.74359V9.16667ZM2.42308 8.45513V5.60897H1V8.45513H2.42308ZM2.42308 15.0962V12.25H1V15.0962H2.42308ZM2.55021 11.1912C2.44025 11.3016 2.30953 11.3891 2.16559 11.4487C2.02165 11.5083 1.86733 11.5388 1.71154 11.5385V12.9615C2.37849 12.9615 3.04733 12.7063 3.5568 12.1969L2.55021 11.1912ZM17.9498 9.5139C18.1813 9.28241 18.4839 9.16667 18.7885 9.16667V7.74359C18.1215 7.74359 17.4536 7.99879 16.9442 8.50826L17.9498 9.5139ZM18.0769 5.60897V8.45513H19.5V5.60897H18.0769ZM18.0769 12.25V15.0962H19.5V12.25H18.0769ZM18.7885 11.5385C18.4839 11.5385 18.1813 11.4227 17.9498 11.1912L16.9442 12.1978C17.1861 12.4404 17.4736 12.6319 17.7901 12.7631C18.1066 12.8943 18.4458 12.9618 18.7885 12.9615V11.5385ZM3.60897 16.2821C2.95436 16.2821 2.42308 15.7508 2.42308 15.0962H1C1 15.7881 1.27487 16.4517 1.76415 16.941C2.25343 17.4303 2.91703 17.7051 3.60897 17.7051V16.2821ZM16.891 17.7051C17.583 17.7051 18.2466 17.4303 18.7358 16.941C19.2251 16.4517 19.5 15.7881 19.5 15.0962H18.0769C18.0769 15.7508 17.5456 16.2821 16.891 16.2821V17.7051ZM16.891 4.42308C17.5456 4.42308 18.0769 4.95436 18.0769 5.60897H19.5C19.5 4.91703 19.2251 4.25343 18.7358 3.76415C18.2466 3.27487 17.583 3 16.891 3V4.42308ZM3.60897 3C2.91703 3 2.25343 3.27487 1.76415 3.76415C1.27487 4.25343 1 4.91703 1 5.60897H2.42308C2.42308 4.95436 2.95436 4.42308 3.60897 4.42308V3Z" fill="black"/>
</svg>
