<svg width="21" height="20" viewBox="0 0 21 20" fill="none" xmlns="http://www.w3.org/2000/svg">
<path d="M2.375 5C2.375 3.89543 3.27043 3 4.375 3H14.375C15.4796 3 16.375 3.89543 16.375 5V15C16.375 16.1046 15.4796 17 14.375 17H4.375C3.27043 17 2.375 16.1046 2.375 15V5Z" stroke="black" stroke-width="1.5"/>
<path d="M4.45093 5.44733L3.73633 4.33888C3.60014 4.12763 3.366 4 3.11466 4C2.70616 4 2.375 4.33116 2.375 4.73966V15C2.375 16.1046 3.27043 17 4.375 17H16.375C17.4796 17 18.375 16.1046 18.375 15V8.36364C18.375 7.25907 17.4796 6.36364 16.375 6.36364H6.13189C5.45228 6.36364 4.81918 6.01853 4.45093 5.44733Z" fill="#F5F5F5" stroke="black" stroke-width="1.5" stroke-linecap="square"/>
<mask id="path-3-inside-1_2045_19754" fill="white">
<path d="M12.375 12C12.375 10.3431 13.7181 9 15.375 9H19.375C19.9273 9 20.375 9.44772 20.375 10V14C20.375 14.5523 19.9273 15 19.375 15H15.375C13.7181 15 12.375 13.6569 12.375 12Z"/>
</mask>
<path d="M12.375 12C12.375 10.3431 13.7181 9 15.375 9H19.375C19.9273 9 20.375 9.44772 20.375 10V14C20.375 14.5523 19.9273 15 19.375 15H15.375C13.7181 15 12.375 13.6569 12.375 12Z" fill="#F5F5F5" stroke="black" stroke-width="3" mask="url(#path-3-inside-1_2045_19754)"/>
</svg>
