<svg width="375" height="191" viewBox="0 0 375 191" fill="none" xmlns="http://www.w3.org/2000/svg">
<path d="M204 8.96484C216.945 10.3825 227.358 13.1831 234.837 23.7248C240.35 31.4942 242.733 37.9077 241.561 46.9705" stroke="#00C4EF" stroke-width="3" stroke-linecap="round"/>
<path d="M0 75.0627V191H375V96.2182C375 85.7247 366.493 77.2182 356 77.2182H273.834C266.684 77.2182 260.139 73.2038 256.898 66.8301L246.571 46.521C243.036 39.5684 235.61 35.4828 227.845 36.2175L17.2103 56.1472C7.45376 57.0703 0 65.2626 0 75.0627Z" fill="white"/>
<path d="M244.024 1.99941C241.134 3.55766 238.219 5.03375 235.57 6.87953C230.605 10.3389 226.483 14.7406 223.725 19.5102C220.654 24.8204 217.805 30.655 217.78 36.451C217.765 40.0482 218.158 43.5721 219.578 46.9249C221.843 52.2738 226.025 57.3252 233.173 58.3879" stroke="#00C4EF" stroke-width="3" stroke-linecap="round"/>
</svg>
