<svg width="250" height="157" viewBox="0 0 250 157" fill="none" xmlns="http://www.w3.org/2000/svg">
<path d="M0 8C0 3.58172 3.58172 0 8 0H242C246.418 0 250 3.58172 250 8V149C250 153.418 246.418 157 242 157H8C3.58172 157 0 153.418 0 149V8Z" fill="white"/>
<path d="M24 125.5C24 121.91 26.9101 119 30.5 119H220.5C224.09 119 227 121.91 227 125.5C227 129.09 224.09 132 220.5 132H30.5C26.9102 132 24 129.09 24 125.5Z" fill="#E3F7FF"/>
<g clip-path="url(#clip0_707_39903)">
<path d="M83.3559 52.679C83.3559 35.8221 69.3052 22.2481 52.2763 23.0345C37.11 23.7274 24.7843 36.0089 24.0373 51.1702C23.5999 60.0164 27.0401 68.0566 32.8048 73.7624C33.1489 74.1015 33.3258 74.5733 33.2815 75.05L32.5247 83.0067C32.4559 83.7193 32.7803 84.4122 33.3749 84.8152C35.7437 86.4125 42.5111 90.1623 53.6769 89.9902C64.8428 90.1623 71.6101 86.4125 73.9789 84.8152C74.5736 84.4122 74.8979 83.7193 74.8291 83.0067L74.0723 75.05C74.028 74.5684 74.205 74.1015 74.549 73.7624C79.9845 68.3859 83.3509 60.9256 83.3509 52.6741L83.3559 52.679Z" fill="url(#paint0_linear_707_39903)"/>
<path d="M38.5625 77.2305C42.9905 79.8598 48.1606 81.3734 53.6846 81.3734C59.2085 81.3734 64.3737 79.8598 68.8017 77.2305" stroke="white" stroke-width="1.8264" stroke-miterlimit="10" stroke-linecap="round"/>
<path d="M53.6838 32.9023L55.7479 37.0895L60.3627 37.7579L57.0257 41.0163L57.812 45.6163L53.6838 43.444L49.5506 45.6163L50.3419 41.0163L47 37.7579L51.6197 37.0895L53.6838 32.9023Z" fill="white"/>
<path d="M39.2053 39.625L40.3357 41.9201L42.8667 42.2887L41.0335 44.0727L41.466 46.5987L39.2053 45.4045L36.9397 46.5987L37.3722 44.0727L35.5391 42.2887L38.0701 41.9201L39.2053 39.625Z" fill="white"/>
<path d="M47.0725 47.4883L48.2028 49.7834L50.7338 50.152L48.9007 51.9359L49.3332 54.462L47.0725 53.2678L44.8069 54.462L45.2394 51.9359L43.4062 50.152L45.9372 49.7834L47.0725 47.4883Z" fill="white"/>
<path d="M68.1535 39.625L67.0232 41.9201L64.4922 42.2887L66.3204 44.0727L65.8879 46.5987L68.1535 45.4045L70.4191 46.5987L69.9866 44.0727L71.8198 42.2887L69.2888 41.9201L68.1535 39.625Z" fill="white"/>
<path d="M60.2863 47.4883L59.156 49.7834L56.625 50.152L58.4532 51.9359L58.0207 54.462L60.2863 53.2678L62.5519 54.462L62.1195 51.9359L63.9526 50.152L61.4216 49.7834L60.2863 47.4883Z" fill="white"/>
</g>
<path d="M129 57C129 53.134 132.134 50 136 50H221C224.866 50 228 53.134 228 57C228 60.866 224.866 64 221 64H136C132.134 64 129 60.866 129 57Z" fill="#E3F7FF"/>
<path d="M129 79.5C129 75.9101 131.91 73 135.5 73H221.5C225.09 73 228 75.9101 228 79.5C228 83.0899 225.09 86 221.5 86H135.5C131.91 86 129 83.0899 129 79.5Z" fill="#E3F7FF"/>
<path d="M9 23V12C9 9.79086 10.7909 8 13 8H24" stroke="#DDDDDD" stroke-width="3"/>
<path d="M241 133L241 144C241 146.209 239.209 148 237 148L226 148" stroke="#DDDDDD" stroke-width="3"/>
<path d="M24 148L13 148C10.7909 148 9 146.209 9 144L9 133" stroke="#DDDDDD" stroke-width="3"/>
<path d="M226 8L237 8C239.209 8 241 9.79086 241 12L241 23" stroke="#DDDDDD" stroke-width="3"/>
<path d="M100 78.5C100 64.4167 111.417 53 125.5 53C139.583 53 151 64.4167 151 78.5C151 92.5833 139.583 104 125.5 104C111.417 104 100 92.5833 100 78.5Z" fill="black" fill-opacity="0.6"/>
<path d="M125.5 71.5V85.5" stroke="white" stroke-width="2" stroke-linecap="round" stroke-linejoin="round"/>
<path d="M118.5 78.5H132.5" stroke="white" stroke-width="2" stroke-linecap="round" stroke-linejoin="round"/>
<defs>
<linearGradient id="paint0_linear_707_39903" x1="53.6779" y1="23.002" x2="53.6779" y2="89.996" gradientUnits="userSpaceOnUse">
<stop offset="0.135" stop-color="#FFCC91"/>
<stop offset="0.575" stop-color="#FFEEB0"/>
</linearGradient>
<clipPath id="clip0_707_39903">
<rect width="59.3579" height="67" fill="white" transform="translate(24 23)"/>
</clipPath>
</defs>
</svg>
