<svg width="250" height="157" viewBox="0 0 250 157" fill="none" xmlns="http://www.w3.org/2000/svg">
<path d="M0 8C0 3.58172 3.58172 0 8 0H242C246.418 0 250 3.58172 250 8V149C250 153.418 246.418 157 242 157H8C3.58172 157 0 153.418 0 149V8Z" fill="white"/>
<path d="M24 125.5C24 121.91 26.9101 119 30.5 119H220.5C224.09 119 227 121.91 227 125.5C227 129.09 224.09 132 220.5 132H30.5C26.9102 132 24 129.09 24 125.5Z" fill="#E3F7FF"/>
<path d="M24 40.3038C24 36.4404 27.1319 33.3086 30.9952 33.3086H55.2452C59.1085 33.3086 62.2404 36.4404 62.2404 40.3038C62.2404 44.1671 59.1085 47.299 55.2452 47.299H30.9952C27.1319 47.299 24 44.1671 24 40.3038Z" fill="#E3F7FF"/>
<path d="M71.5625 40.3038C71.5625 36.4404 74.6944 33.3086 78.5577 33.3086H114C117.863 33.3086 120.995 36.4404 120.995 40.3038C120.995 44.1671 117.863 47.299 114 47.299H78.5577C74.6943 47.299 71.5625 44.1671 71.5625 40.3038Z" fill="#E3F7FF"/>
<path d="M24 63.1538C24 59.5481 26.9231 56.625 30.5288 56.625H55.7115C59.3173 56.625 62.2404 59.5481 62.2404 63.1538C62.2404 66.7596 59.3173 69.6827 55.7115 69.6827H30.5288C26.9231 69.6827 24 66.7596 24 63.1538Z" fill="#E3F7FF"/>
<path d="M71.5625 63.1538C71.5625 59.5481 74.4856 56.625 78.0913 56.625H114.466C118.072 56.625 120.995 59.5481 120.995 63.1538C120.995 66.7596 118.072 69.6827 114.466 69.6827H78.0913C74.4856 69.6827 71.5625 66.7596 71.5625 63.1538Z" fill="#E3F7FF"/>
<path d="M24 86.005C24 82.1416 27.1319 79.0098 30.9952 79.0098H55.2452C59.1085 79.0098 62.2404 82.1416 62.2404 86.005C62.2404 89.8683 59.1085 93.0002 55.2452 93.0002H30.9952C27.1319 93.0002 24 89.8683 24 86.005Z" fill="#E3F7FF"/>
<path d="M71.5625 86.005C71.5625 82.1416 74.6944 79.0098 78.5577 79.0098H114C117.863 79.0098 120.995 82.1416 120.995 86.005C120.995 89.8683 117.863 93.0002 114 93.0002H78.5577C74.6943 93.0002 71.5625 89.8683 71.5625 86.005Z" fill="#E3F7FF"/>
<g clip-path="url(#clip0_707_37252)">
<path d="M215.739 86.2755C212.014 81.4627 203.802 77.9614 199.994 76.7342C196.186 75.5071 190.599 73.931 190.599 72.4449V66.0334C190.599 65.5662 190.743 65.1102 191.032 64.75C193.328 61.8397 193.506 58.8169 193.984 57.8262C194.49 56.7736 195.591 56.5146 195.591 56.5146C195.591 56.5146 196.075 56.6047 196.536 56.1375C197.631 55.0454 199.066 50.0862 198.148 48.2343C197.509 46.9396 195.958 47.6714 195.958 47.6714C195.958 43.1906 197.259 35.3437 193.79 30.863C192.489 29.1799 190.365 28.0372 188.219 27.2604C183.566 25.5773 178.44 25.5773 173.781 27.2604C171.635 28.0372 169.511 29.1799 168.21 30.863C164.741 35.3437 166.042 43.1906 166.042 47.6714C166.042 47.6714 164.491 46.9396 163.852 48.2343C162.934 50.0862 164.369 55.0454 165.464 56.1375C165.925 56.5991 166.409 56.5146 166.409 56.5146C166.409 56.5146 167.51 56.7792 168.016 57.8262C168.494 58.8169 168.672 61.8341 170.968 64.75C171.251 65.1158 171.402 65.5718 171.402 66.0334V72.4449C171.402 73.931 165.814 75.5071 162.006 76.7342C158.198 77.9614 149.986 81.4627 146.261 86.2755C143.154 90.3003 142.225 95.783 142.003 100.393C141.936 101.812 143.048 102.999 144.449 102.999H217.551C218.952 102.999 220.064 101.812 219.997 100.393C219.775 95.7886 218.852 90.3003 215.739 86.2755Z" fill="url(#paint0_linear_707_37252)"/>
</g>
<path d="M9 23V12C9 9.79086 10.7909 8 13 8H24" stroke="#DDDDDD" stroke-width="3"/>
<path d="M241 133L241 144C241 146.209 239.209 148 237 148L226 148" stroke="#DDDDDD" stroke-width="3"/>
<path d="M24 148L13 148C10.7909 148 9 146.209 9 144L9 133" stroke="#DDDDDD" stroke-width="3"/>
<path d="M226 8L237 8C239.209 8 241 9.79086 241 12L241 23" stroke="#DDDDDD" stroke-width="3"/>
<path d="M100 78.5C100 64.4167 111.417 53 125.5 53C139.583 53 151 64.4167 151 78.5C151 92.5833 139.583 104 125.5 104C111.417 104 100 92.5833 100 78.5Z" fill="black" fill-opacity="0.6"/>
<path d="M125.5 71.5V85.5" stroke="white" stroke-width="2" stroke-linecap="round" stroke-linejoin="round"/>
<path d="M118.5 78.5H132.5" stroke="white" stroke-width="2" stroke-linecap="round" stroke-linejoin="round"/>
<defs>
<linearGradient id="paint0_linear_707_37252" x1="181" y1="25.998" x2="181" y2="102.999" gradientUnits="userSpaceOnUse">
<stop offset="0.02" stop-color="#A8E6FF"/>
<stop offset="0.575" stop-color="#E3F7FF"/>
</linearGradient>
<clipPath id="clip0_707_37252">
<rect width="78" height="77" fill="white" transform="translate(142 26)"/>
</clipPath>
</defs>
</svg>
