<svg width="24" height="24" viewBox="0 0 24 24" fill="none" xmlns="http://www.w3.org/2000/svg">
<g clip-path="url(#clip0_2096_26814)">
<g clip-path="url(#clip1_2096_26814)">
<path d="M16.8499 6.43169C17.0418 6.4077 17.3056 6.13016 17.4717 6.04307C17.5217 6.01688 17.9049 5.83169 17.962 5.82185C18.3627 5.75277 18.2381 6.47937 18.231 6.63497C18.2131 7.03092 18.1063 7.44947 18.1832 7.84267C18.2611 8.24068 18.376 8.15622 18.7811 8.15357C19.2848 8.15028 19.787 8.1098 20.2907 8.10275C20.6894 8.09717 21.2921 7.98736 21.6808 8.11172C21.8033 8.15092 21.7154 8.33041 21.6808 8.39272C21.5495 8.62901 21.3288 8.8054 21.1457 8.99957C20.7575 9.41106 20.3687 9.82409 20.0127 10.2641C19.8875 10.4188 19.4342 10.8396 19.7915 10.9935C20.4133 11.2613 21.3044 11.1131 21.9618 11.1131C22.1472 11.1131 22.9133 10.9715 23.0379 11.2207" stroke="#00C4EF" stroke-width="1.6" stroke-linecap="round"/>
<path d="M17.9653 9.78077C18.6725 11.4394 19.1059 12.9566 19.1236 14.5712C19.1329 15.4125 19.0274 16.2349 18.6416 16.9981C18.3936 17.4891 18.0583 17.9243 17.5614 18.1878C17.3709 18.2886 16.8495 18.5655 16.4728 18.61C11.6792 19.1834 6.88523 19.7577 2.09218 20.3342C1.7567 20.3747 1.43708 20.3694 1.23151 20.0517C1.01498 19.717 1.14423 19.4198 1.34837 19.1222C4.13174 15.0666 6.9101 11.0073 9.69277 6.95202C9.98886 6.51983 10.2897 6.08888 10.6162 5.67944C11.2779 4.8499 12.1493 4.59358 13.1668 4.83239C14.0891 5.04865 14.8279 5.58793 15.499 6.22736C16.2528 6.9464 16.8696 7.77455 17.3768 8.68267C17.6123 9.10349 17.8329 9.53261 17.9653 9.78077ZM9.79574 9.06697C7.54662 12.3498 5.30525 15.6216 3.04174 18.9251C6.77522 18.4778 10.4581 18.0362 14.1378 17.5952C11.5255 15.3361 10.2134 12.4458 9.79613 9.06595L9.79574 9.06697ZM12.9513 14.3334C13.5309 15.222 14.1666 16.0282 15.0347 16.6061C15.3718 16.8306 15.7616 17.003 16.1525 17.1116C16.7005 17.2642 17.1291 17.0615 17.4092 16.563C17.554 16.3045 17.6791 16.0151 17.7283 15.7257C17.9472 14.4285 17.878 13.1549 17.3091 11.9418C17.1196 11.5368 16.9417 11.1241 16.7203 10.7367C16.3638 10.1141 15.9207 9.55288 15.3265 9.13738C15.1013 8.9803 14.8399 8.86128 14.5788 8.77505C14.3258 8.69195 14.1329 8.80062 14.0491 9.05393C13.9803 9.2634 13.9375 9.48922 13.9307 9.70906C13.913 10.3042 14.0491 10.8789 14.2777 11.4226C14.4969 11.9434 14.7625 12.4453 15.0032 12.9575C15.1258 13.2176 15.0996 13.3634 14.8749 13.5411C14.7633 13.6296 14.6215 13.6843 14.4869 13.7383C13.9821 13.9386 13.4741 14.1318 12.9516 14.3341L12.9513 14.3334ZM14.9846 7.53552C14.517 7.02736 14.0609 6.60184 13.4953 6.32634C13.2174 6.19105 12.9088 6.08544 12.6036 6.04416C12.0624 5.97127 11.4735 6.40725 11.3241 6.93022C11.0982 7.72096 11.0464 8.52364 11.1347 9.33985C11.2391 10.3058 11.4968 11.2331 11.8365 12.1383C11.9727 12.5011 12.149 12.8496 12.3066 13.2038C12.7059 13.0488 13.0753 12.9063 13.4191 12.7726C13.2332 12.2622 13.0365 11.7845 12.885 11.2926C12.6511 10.5361 12.5468 9.76162 12.7252 8.97599C12.8691 8.34409 13.1899 7.83675 13.8166 7.5805C14.1779 7.43313 14.5545 7.4469 14.9846 7.53552Z" fill="black"/>
<path d="M18.836 8.01705C18.5273 8.10811 18.214 7.99953 18.0615 7.73667C17.9084 7.47241 17.9616 7.13319 18.2181 6.92109C18.4815 6.70343 18.7632 6.50798 19.038 6.30463C19.5816 5.90147 20.1213 5.49157 20.6733 5.09983C20.8163 4.99823 20.9928 4.91711 21.1641 4.89063C21.4303 4.84803 21.6656 5.00902 21.7731 5.24467C21.8827 5.48525 21.8315 5.78143 21.6185 5.97581C21.4598 6.12156 21.2787 6.24353 21.1049 6.37239C20.4539 6.85459 19.8034 7.33578 19.1504 7.81548C19.0498 7.88895 18.9405 7.9503 18.8346 8.01767L18.836 8.01705Z" fill="black"/>
<path d="M19.663 9.10141C20.3596 8.87313 21.0562 8.64313 21.7533 8.41627C22.0888 8.30742 22.4714 8.49226 22.5773 8.80962C22.6902 9.14662 22.5047 9.522 22.1593 9.63696C21.4364 9.87613 20.7126 10.1115 19.9886 10.3444C19.641 10.4561 19.2708 10.286 19.1556 9.96856C19.0339 9.63462 19.2106 9.2792 19.5664 9.14021C19.5987 9.12751 19.6323 9.11763 19.6659 9.10602C19.6653 9.10461 19.6647 9.10321 19.664 9.1018L19.663 9.10141Z" fill="black"/>
<path d="M17.6456 5.78021C17.3452 5.9165 17.1238 5.91211 16.9187 5.76213C16.7062 5.607 16.6275 5.39058 16.6735 5.13558C16.6905 5.04111 16.7269 4.94474 16.7768 4.86347C17.1409 4.26767 17.5004 3.66717 17.8871 3.08582C17.9832 2.94176 18.1588 2.82057 18.3237 2.75895C18.5581 2.67146 18.7812 2.76703 18.9416 2.96054C19.1089 3.16195 19.1319 3.39555 19.0282 3.63071C18.961 3.78298 18.866 3.92399 18.7782 4.06601C18.4931 4.53044 18.2093 4.99597 17.9148 5.45446C17.8266 5.59164 17.7054 5.70801 17.6449 5.78052L17.6456 5.78021Z" fill="black"/>
<path d="M9.79256 9.06624C10.2102 12.4451 11.5219 15.3363 14.1342 17.5954C10.4545 18.0365 6.77165 18.4781 3.03817 18.9254C5.30168 15.6218 7.54305 12.3501 9.79217 9.06726L9.79256 9.06624Z" fill="white"/>
<path d="M12.9478 14.3343C13.4703 14.132 13.9783 13.9388 14.4831 13.7385C14.618 13.6852 14.7595 13.6297 14.8711 13.5412C15.0958 13.3636 15.122 13.2178 14.9994 12.9576C14.7587 12.4455 14.4934 11.9443 14.2739 11.4228C14.0453 10.8791 13.9085 10.3047 13.9269 9.70924C13.9336 9.4894 13.9765 9.26359 14.0453 9.05412C14.1291 8.80081 14.3217 8.69143 14.575 8.77524C14.8361 8.86147 15.0982 8.98018 15.3227 9.13757C15.9166 9.55236 16.3597 10.1136 16.7165 10.7369C16.9379 11.1243 17.1158 11.537 17.3053 11.9419C17.8742 13.1551 17.9434 14.4287 17.7245 15.7259C17.6756 16.016 17.5509 16.3044 17.4054 16.5632C17.1256 17.0624 16.697 17.2651 16.1487 17.1118C15.7584 17.0029 15.3677 16.8301 15.0309 16.6062C14.1628 16.0284 13.5271 15.2222 12.9475 14.3336L12.9478 14.3343Z" fill="white"/>
<path d="M14.9879 7.53531C14.5585 7.44637 14.181 7.43222 13.82 7.58029C13.1933 7.83654 12.8724 8.34388 12.7285 8.97578C12.5501 9.76141 12.6545 10.5359 12.8884 11.2924C13.0406 11.784 13.2366 12.262 13.4225 12.7724C13.0783 12.9054 12.7093 13.0486 12.31 13.2036C12.1523 12.8494 11.9761 12.5009 11.8398 12.138C11.4994 11.2333 11.2428 10.3063 11.1381 9.33964C11.0498 8.52343 11.1016 7.72075 11.3275 6.93001C11.4762 6.40736 12.0657 5.97106 12.6069 6.04395C12.9122 6.08523 13.2208 6.19084 13.4987 6.32613C14.0643 6.60163 14.5204 7.02715 14.9879 7.53531Z" fill="white"/>
</g>
</g>
<defs>
<clipPath id="clip0_2096_26814">
<rect width="24" height="24" fill="white"/>
</clipPath>
<clipPath id="clip1_2096_26814">
<rect width="24.8" height="14.5717" fill="white" transform="translate(-2.6875 11.2734) rotate(-24)"/>
</clipPath>
</defs>
</svg>
