<svg width="24" height="24" viewBox="0 0 24 24" fill="none" xmlns="http://www.w3.org/2000/svg">
<g clip-path="url(#clip0_2096_6162)">
<g clip-path="url(#clip1_2096_6162)">
<path d="M18.2147 10.2196C18.8929 11.8902 19.2998 13.4149 19.2893 15.0295C19.2839 15.8709 19.164 16.6913 18.765 17.4476C18.5084 17.9342 18.1657 18.3635 17.6642 18.6182C17.472 18.7158 16.9459 18.9835 16.5684 19.0214C11.7656 19.511 6.96227 20.0016 2.15988 20.4944C1.82375 20.529 1.50427 20.5181 1.30428 20.1969C1.09362 19.8584 1.22803 19.5636 1.43734 19.2696C4.29107 15.2632 7.13985 11.253 9.99287 7.24687C10.2965 6.81991 10.6048 6.39428 10.9384 5.9906C11.6144 5.17274 12.4901 4.93166 13.5034 5.18819C14.4218 5.42051 15.151 5.97261 15.8108 6.62365C16.552 7.35574 17.1542 8.19452 17.6455 9.11136C17.8736 9.53622 18.0867 9.96913 18.2147 10.2196ZM10.0589 9.36329C7.75284 12.6064 5.45471 15.8385 3.13389 19.1021C6.87461 18.72 10.5646 18.3427 14.2515 17.966C11.679 15.6616 10.4175 12.7489 10.0593 9.36228L10.0589 9.36329ZM13.1221 14.684C13.6861 15.5825 14.3076 16.3997 15.1655 16.9927C15.4986 17.2231 15.8853 17.4022 16.2743 17.5176C16.8195 17.6797 17.2517 17.4846 17.5404 16.9911C17.6897 16.7351 17.8198 16.4479 17.874 16.1595C18.1155 14.8663 18.0686 13.5917 17.521 12.3688C17.3385 11.9606 17.1679 11.5448 16.9533 11.1536C16.6077 10.5249 16.1745 9.95602 15.5876 9.53022C15.3652 9.36924 15.1059 9.24567 14.8463 9.1549C14.5948 9.06739 14.4 9.17268 14.3118 9.42449C14.2394 9.63273 14.1926 9.85776 14.182 10.0774C14.154 10.6722 14.28 11.2492 14.499 11.7968C14.7092 12.3214 14.966 12.8278 15.1977 13.3441C15.3157 13.6063 15.287 13.7516 15.0592 13.9253C14.9461 14.0119 14.8033 14.0641 14.6678 14.1158C14.1596 14.3072 13.6483 14.4916 13.1224 14.6847L13.1221 14.684ZM15.2737 7.92264C14.8151 7.40639 14.3665 6.97298 13.8057 6.68765C13.5302 6.54753 13.2236 6.43655 12.9191 6.38995C12.3792 6.30762 11.7828 6.73327 11.6243 7.25354C11.3847 8.04022 11.3189 8.84188 11.3929 9.6595C11.4805 10.6272 11.7219 11.5588 12.0457 12.4697C12.1756 12.8349 12.3457 13.1864 12.4972 13.5433C12.8991 13.3953 13.271 13.2593 13.617 13.1316C13.4401 12.6181 13.2518 12.137 13.1089 11.6425C12.8882 10.882 12.7974 10.1058 12.9895 9.32345C13.1444 8.69416 13.474 8.1925 14.1051 7.94723C14.4689 7.80619 14.8452 7.82652 15.2737 7.92264Z" fill="#A3A3A3"/>
<path d="M19.1138 8.47177C18.8035 8.55743 18.4921 8.4434 18.3443 8.17792C18.1958 7.91103 18.2549 7.57279 18.5151 7.3652C18.7822 7.15216 19.0673 6.96166 19.3456 6.76314C19.8961 6.36953 20.4429 5.96911 21.0017 5.58706C21.1464 5.48797 21.3243 5.40995 21.496 5.38646C21.7629 5.34852 21.9954 5.51359 22.0988 5.75108C22.2042 5.99354 22.1478 6.28877 21.9315 6.47941C21.7702 6.62237 21.5871 6.74116 21.411 6.86696C20.7517 7.33773 20.0928 7.80749 19.4316 8.27572C19.3298 8.34743 19.2193 8.40686 19.1123 8.47237L19.1138 8.47177Z" fill="#A3A3A3"/>
<path d="M19.9186 9.56961C20.6191 9.35352 21.3196 9.13572 22.0206 8.92105C22.3579 8.81808 22.7372 9.00956 22.8376 9.32872C22.9446 9.66764 22.7525 10.0397 22.4052 10.1486C21.6782 10.3752 20.9505 10.5978 20.2225 10.8181C19.873 10.9237 19.5058 10.7472 19.3962 10.4278C19.2803 10.0918 19.4632 9.73948 19.8214 9.60672C19.8539 9.59458 19.8876 9.58529 19.9215 9.57427C19.9209 9.57285 19.9203 9.57143 19.9197 9.57001L19.9186 9.56961Z" fill="#A3A3A3"/>
<path d="M17.9626 6.21569C17.6598 6.34672 17.4386 6.33847 17.2361 6.18494C17.0263 6.02612 16.9515 5.80836 17.0018 5.5542C17.0205 5.46004 17.0586 5.36432 17.1099 5.28394C17.4844 4.69458 17.8543 4.10044 18.251 3.52594C18.3497 3.38357 18.5273 3.26547 18.6933 3.20674C18.9292 3.12335 19.1506 3.22279 19.3076 3.41908C19.4714 3.62338 19.4903 3.85734 19.3825 4.09066C19.3127 4.24173 19.2152 4.38106 19.1249 4.52153C18.8318 4.98091 18.5399 5.44142 18.2374 5.8947C18.1468 6.03031 18.0236 6.14455 17.9618 6.216L17.9626 6.21569Z" fill="#A3A3A3"/>
</g>
</g>
<defs>
<clipPath id="clip0_2096_6162">
<rect width="24" height="24" fill="white"/>
</clipPath>
<clipPath id="clip1_2096_6162">
<rect width="24.8" height="14.5717" fill="white" transform="translate(-2.46094 11.3516) rotate(-23)"/>
</clipPath>
</defs>
</svg>
