<svg width="24" height="24" viewBox="0 0 24 24" fill="none" xmlns="http://www.w3.org/2000/svg">
<g clip-path="url(#clip0_2096_6150)">
<path d="M15.2694 5.83808C15.1127 5.33343 15.2453 4.76945 15.5467 4.34065C15.9573 3.75621 16.2886 3.97479 16.4257 4.60963C16.4895 4.90535 16.6275 5.69976 16.3869 5.51641C16.2532 5.41454 15.8406 4.69005 16.2676 4.69005" stroke="#00BF6F" stroke-width="2.4" stroke-linecap="round"/>
<path d="M19.4309 10.9152C19.4552 10.4233 19.7097 9.76396 20.0961 9.62126C20.4319 9.49721 20.7704 9.92792 20.801 10.3606C20.8442 10.9713 20.2165 11.1803 19.8792 11.1973C19.5071 11.2161 19.2861 11.1272 19.2031 10.6525" stroke="#00BF6F" stroke-width="2.4" stroke-linecap="round"/>
<path d="M8.81359 12.6468C8.82936 11.7813 8.92876 10.9771 9.19806 10.2022C9.42727 9.54155 9.74859 8.93239 10.2656 8.44917C11.145 7.62704 12.1549 7.43893 13.274 7.87336C14.0707 8.18232 14.6832 8.73686 15.2033 9.39857C15.9979 10.4088 16.4988 11.5601 16.8023 12.8015C17.1411 14.1885 17.2182 15.5846 16.9074 16.988C16.7213 17.8288 16.3965 18.6075 15.8102 19.2566C14.9555 20.2021 13.7343 20.4668 12.5623 19.9636C11.8867 19.6736 11.3432 19.2119 10.869 18.6599C10.8075 18.5879 10.7475 18.515 10.6926 18.4502C10.6283 18.9277 10.6034 19.4109 10.4907 19.8727C10.3887 20.2903 10.2372 20.7098 10.0292 21.0844C9.28434 22.4228 7.87241 22.8954 6.45658 22.3085C5.5114 21.9169 4.80909 21.2343 4.22399 20.417C3.49679 19.4005 3.07187 18.2553 2.81309 17.042C2.65171 16.2835 2.54864 15.5186 2.569 14.7406C2.59773 13.6567 2.76473 12.6082 3.36942 11.6764C4.11329 10.5311 5.35985 10.1594 6.61019 10.7036C7.4325 11.0619 8.05289 11.664 8.59653 12.3576C8.66023 12.4394 8.721 12.5229 8.81511 12.6467L8.81359 12.6468ZM15.1462 18.0419C15.1152 18.0242 15.1029 18.0114 15.0923 18.0121C15.0581 18.0145 15.0233 18.0185 14.9921 18.0306C14.4006 18.2565 13.8962 18.0805 13.4396 17.6928C13.0754 17.3834 12.8074 16.9985 12.594 16.5763C11.9323 15.2638 11.6497 13.8729 11.7737 12.407C11.8188 11.8737 11.9483 11.3573 12.2538 10.9033C12.6913 10.2548 13.3601 10.076 14.065 10.4135C14.1976 10.4767 14.3335 10.5328 14.4674 10.5921C14.0963 9.9879 13.6493 9.47596 13.0274 9.14714C12.2146 8.71723 11.4584 8.88989 10.9047 9.62363C10.5745 10.0625 10.3798 10.5621 10.2581 11.0909C10.0074 12.1865 10.0473 13.28 10.2651 14.3771C10.4626 15.3688 10.798 16.3028 11.3371 17.1601C11.7053 17.7454 12.1459 18.2639 12.7416 18.6319C13.0581 18.8272 13.4001 18.9613 13.7767 18.9464C14.4058 18.9207 14.8105 18.543 15.1447 18.0412L15.1462 18.0419ZM7.58813 13.1239C7.09814 12.5211 6.58518 11.9825 5.82084 11.7659C5.3461 11.632 4.93224 11.7578 4.62619 12.1271C4.43128 12.362 4.26983 12.6388 4.15304 12.9216C3.87854 13.5893 3.81913 14.2999 3.83628 15.0143C3.8596 15.9587 4.02843 16.8785 4.3225 17.778C4.68344 18.8811 5.22616 19.867 6.12101 20.6299C6.52744 20.9761 6.98352 21.2249 7.52708 21.2846C7.85768 21.321 8.2512 21.1989 8.4292 20.9949C7.77405 20.8233 7.24881 20.4473 6.82918 19.9342C5.94061 18.8466 5.42182 17.6027 5.32025 16.1938C5.27611 15.5736 5.32046 14.964 5.58159 14.3888C5.89098 13.7072 6.40063 13.271 7.15543 13.1549C7.28826 13.1342 7.42485 13.1346 7.58884 13.1231L7.58813 13.1239Z" fill="black"/>
<path d="M19.4981 4.21477C19.4856 4.57115 19.2405 4.89496 18.9055 4.90542C18.3408 4.92431 17.9842 5.23609 17.7174 5.68577C17.3154 6.36233 17.1708 7.10938 17.1426 7.88415C17.1383 7.99812 17.174 8.1154 17.1995 8.22957C17.2833 8.60973 17.1125 8.9497 16.7839 9.04974C16.447 9.15263 16.1222 8.98081 15.9898 8.60329C15.4927 7.1901 14.4121 6.60654 13.0018 6.47859C12.7415 6.45483 12.4821 6.42185 12.225 6.37804C11.9625 6.33308 11.7685 6.1338 11.7216 5.88838C11.6732 5.63315 11.7903 5.37702 12.0253 5.23548C12.078 5.20357 12.1348 5.17594 12.1937 5.15657C13.2182 4.82784 13.6823 4.05692 13.8525 3.05404C13.94 2.53908 13.879 2.0368 13.7253 1.54175C13.5548 0.989909 13.749 0.669648 14.3107 0.574679C14.8981 0.475629 15.1052 0.611435 15.2637 1.19769C15.6567 2.65019 16.946 3.59984 18.4466 3.57882C18.6935 3.57529 18.9606 3.68478 19.1841 3.80494C19.322 3.87921 19.3959 4.07316 19.498 4.21326L19.4981 4.21477ZM14.1459 5.37403C14.8784 5.5944 15.5033 5.93367 16.0657 6.42683C16.2411 5.76078 16.4972 5.15698 16.9148 4.61589C16.2009 4.36752 15.6071 3.97115 15.0808 3.4152C14.9292 4.16045 14.6374 4.79878 14.146 5.37479L14.1459 5.37403Z" fill="black"/>
<path d="M19.2876 7.23685C19.5302 7.22599 19.7299 7.34248 19.8646 7.56803C20.4088 8.47671 21.2274 8.95805 22.254 9.13879C22.4439 9.17204 22.6375 9.26683 22.7964 9.37931C23.1158 9.60567 23.1123 10.0781 22.8034 10.3301C22.7088 10.4069 22.5919 10.4586 22.4813 10.5129C21.8136 10.8388 21.407 11.3623 21.2907 12.099C21.2732 12.2085 21.3097 12.3265 21.3207 12.4409C21.3359 12.6031 21.3795 12.7687 21.36 12.9264C21.3302 13.1658 21.1637 13.3163 20.9335 13.3842C20.6996 13.4532 20.4865 13.3949 20.3283 13.2175C20.2158 13.0911 20.1054 12.9425 20.0562 12.7842C19.9726 12.5154 19.8016 12.329 19.59 12.1714C19.1337 11.8325 18.6168 11.6848 18.0514 11.7488C17.729 11.785 17.4753 11.6914 17.2521 11.4568C16.9301 11.1177 16.9598 10.7021 17.3411 10.4275C17.5648 10.2662 17.8114 10.1276 18.0031 9.93419C18.2083 9.72683 18.3865 9.4817 18.5296 9.22681C18.6944 8.93225 18.6901 8.60833 18.5691 8.2857C18.3467 7.69019 18.6202 7.282 19.2869 7.2369L19.2876 7.23685ZM19.8501 9.46632C19.6339 9.84305 19.4218 10.2141 19.2198 10.5655C19.5596 10.7233 19.9137 10.8877 20.2536 11.0463C20.4633 10.7295 20.6822 10.4006 20.8926 10.0831C20.5409 9.87498 20.186 9.66483 19.8501 9.46556L19.8501 9.46632Z" fill="black"/>
<path d="M15.1408 18.0425C14.8066 18.5442 14.4013 18.9219 13.7729 18.9476C13.3956 18.9625 13.0544 18.8292 12.7378 18.6332C12.1422 18.2652 11.7009 17.7467 11.3334 17.1614C10.7944 16.3042 10.4583 15.3703 10.2615 14.3786C10.0429 13.2816 10.0038 12.1881 10.2545 11.0926C10.3754 10.5631 10.5701 10.0635 10.9011 9.62537C11.454 8.89173 12.2101 8.71832 13.0236 9.14891C13.6455 9.47771 14.0925 9.98962 14.4635 10.5938C14.3289 10.5346 14.193 10.4785 14.0612 10.4152C13.3564 10.0777 12.6884 10.2564 12.2501 10.905C11.9438 11.359 11.8152 11.8753 11.7701 12.4086C11.646 13.8744 11.9286 15.2652 12.5903 16.5776C12.8029 16.9999 13.0716 17.3846 13.4358 17.6941C13.8924 18.0817 14.3968 18.2578 14.9882 18.0318C15.0194 18.0197 15.0551 18.0165 15.0884 18.0134C15.099 18.0126 15.1114 18.0255 15.1424 18.0432L15.1408 18.0425Z" fill="white"/>
<path d="M7.58517 13.124C7.42119 13.1355 7.28466 13.1359 7.15179 13.1559C6.39703 13.272 5.88741 13.7081 5.57804 14.3896C5.31763 14.964 5.27252 15.5736 5.31671 16.1946C5.41751 17.6034 5.93623 18.8465 6.82555 19.9347C7.24516 20.4478 7.76961 20.8239 8.42548 20.9954C8.24755 21.2001 7.854 21.3215 7.52341 21.2851C6.97989 21.2254 6.52388 20.9773 6.11742 20.6304C5.22262 19.8676 4.67994 18.8817 4.31901 17.7787C4.02497 16.8792 3.85614 15.9595 3.83283 15.0152C3.81492 14.3009 3.87503 13.5895 4.14957 12.9226C4.26559 12.6398 4.4278 12.363 4.62269 12.1281C4.92948 11.7588 5.3425 11.6323 5.81727 11.7669C6.58227 11.9827 7.0945 12.5221 7.58446 13.1249L7.58517 13.124Z" fill="white"/>
</g>
<defs>
<clipPath id="clip0_2096_6150">
<rect width="24" height="24" fill="white"/>
</clipPath>
</defs>
</svg>
