<svg width="24" height="24" viewBox="0 0 24 24" fill="none" xmlns="http://www.w3.org/2000/svg">
<path d="M8.88566 12.8101C8.9011 11.9399 9.00019 11.1313 9.26918 10.3523C9.49813 9.68809 9.81921 9.07573 10.3361 8.59006C11.2151 7.76378 12.2249 7.57503 13.3442 8.01226C14.141 8.32322 14.7537 8.88103 15.274 9.54655C16.069 10.5626 16.5703 11.7204 16.8743 12.9687C17.2136 14.3634 17.2912 15.7672 16.9809 17.1781C16.7952 18.0234 16.4708 18.8063 15.8847 19.4587C15.0304 20.409 13.8092 20.6747 12.6371 20.1683C11.9614 19.8765 11.4178 19.412 10.9434 18.8568C10.8818 18.7844 10.8218 18.7111 10.7669 18.6459C10.7028 19.126 10.678 19.6118 10.5655 20.0761C10.4637 20.4959 10.3124 20.9177 10.1045 21.2943C9.36017 22.6397 7.94845 23.1143 6.53242 22.5237C5.58711 22.1295 4.88454 21.443 4.29914 20.6209C3.57157 19.5986 3.14621 18.447 2.88697 17.227C2.7253 16.4643 2.62193 15.6952 2.64199 14.9129C2.67031 13.8231 2.8369 12.769 3.44121 11.8323C4.18463 10.681 5.43102 10.3077 6.68155 10.8554C7.50398 11.216 8.1246 11.8216 8.6685 12.5192C8.73223 12.6014 8.79302 12.6854 8.88718 12.81L8.88566 12.8101ZM15.2203 18.2371C15.1893 18.2193 15.1769 18.2064 15.1663 18.2071C15.1321 18.2095 15.0973 18.2135 15.0661 18.2256C14.4747 18.4526 13.9703 18.2754 13.5135 17.8854C13.1492 17.5742 12.8811 17.1871 12.6675 16.7625C12.0053 15.4426 11.7222 14.044 11.8457 12.5701C11.8906 12.0339 12.0198 11.5147 12.3251 11.0584C12.7624 10.4064 13.4311 10.227 14.1361 10.5666C14.2687 10.6302 14.4047 10.6867 14.5385 10.7464C14.1672 10.1387 13.72 9.62377 13.098 9.29291C12.2851 8.86034 11.529 9.03365 10.9756 9.77119C10.6456 10.2123 10.451 10.7146 10.3295 11.2463C10.0793 12.3477 10.1196 13.4472 10.3378 14.5504C10.5357 15.5476 10.8715 16.4869 11.4108 17.349C11.7793 17.9377 12.2201 18.4592 12.8159 18.8294C13.1325 19.0259 13.4745 19.1608 13.8511 19.146C14.4802 19.1204 14.8847 18.7408 15.2187 18.2364L15.2203 18.2371ZM7.66041 13.2893C7.1702 12.6831 6.65704 12.1413 5.89263 11.9232C5.41784 11.7884 5.00404 11.9148 4.69814 12.286C4.50333 12.522 4.34198 12.8003 4.2253 13.0846C3.95106 13.7558 3.89193 14.4703 3.90936 15.1886C3.93304 16.1382 4.10222 17.063 4.39663 17.9676C4.75799 19.0769 5.30108 20.0683 6.19621 20.8358C6.60276 21.184 7.05893 21.4344 7.6025 21.4946C7.93311 21.5313 8.32658 21.4087 8.50449 21.2037C7.84929 21.0309 7.32391 20.6526 6.9041 20.1365C6.01513 19.0426 5.49586 17.7917 5.39375 16.3751C5.34938 15.7515 5.39349 15.1386 5.65439 14.5603C5.96351 13.8751 6.47299 13.4368 7.22773 13.3203C7.36054 13.2995 7.49713 13.3 7.66111 13.2885L7.66041 13.2893Z" fill="#A3A3A3"/>
<path d="M19.5701 4.33585C19.5578 4.69419 19.3128 5.0197 18.9778 5.03008C18.4131 5.04886 18.0566 5.36222 17.7899 5.81429C17.3881 6.49443 17.2438 7.24555 17.2159 8.02459C17.2117 8.13918 17.2474 8.25712 17.273 8.37193C17.3569 8.75422 17.1863 9.09601 16.8577 9.19647C16.5208 9.29981 16.196 9.12691 16.0634 8.74726C15.5658 7.32607 14.4849 6.73887 13.0744 6.60966C12.8141 6.58567 12.5547 6.55242 12.2976 6.50826C12.035 6.46295 11.841 6.2625 11.794 6.01571C11.7455 5.75904 11.8625 5.50155 12.0975 5.35931C12.1501 5.32725 12.2069 5.29949 12.2659 5.28003C13.2902 4.94988 13.754 4.17489 13.9238 3.16653C14.0112 2.64876 13.9499 2.14368 13.7961 1.64584C13.6253 1.09088 13.8195 0.768929 14.3812 0.673653C14.9685 0.574281 15.1757 0.710918 15.3344 1.30047C15.7279 2.76115 17.0176 3.71654 18.5183 3.69598C18.7653 3.69252 19.0324 3.80272 19.2559 3.92363C19.3939 3.99837 19.4678 4.19342 19.57 4.33432L19.5701 4.33585ZM14.2182 5.49945C14.9508 5.72131 15.5758 6.0627 16.1384 6.5588C16.3136 5.88914 16.5695 5.2821 16.9869 4.73818C16.2729 4.48817 15.6789 4.08938 15.1523 3.53016C15.001 4.27947 14.7095 4.92121 14.2182 5.50022L14.2182 5.49945Z" fill="#A3A3A3"/>
<path d="M19.363 7.37429C19.6056 7.36347 19.8053 7.48068 19.9401 7.70752C20.4847 8.62143 21.3035 9.10575 22.3301 9.28788C22.5202 9.32138 22.7137 9.41678 22.8727 9.52993C23.1923 9.75767 23.1889 10.2327 22.8801 10.486C22.7855 10.5632 22.6686 10.6151 22.558 10.6696C21.8905 10.9971 21.484 11.5233 21.368 12.264C21.3505 12.3742 21.387 12.4929 21.3981 12.6079C21.4134 12.771 21.457 12.9375 21.4376 13.0961C21.4079 13.3368 21.2415 13.488 21.0113 13.5563C20.7774 13.6256 20.5642 13.5668 20.406 13.3884C20.2934 13.2613 20.183 13.1117 20.1337 12.9525C20.05 12.6822 19.8789 12.4947 19.6672 12.3362C19.2108 11.9953 18.6939 11.8466 18.1285 11.9106C17.806 11.947 17.5523 11.8527 17.329 11.6167C17.0069 11.2757 17.0364 10.8578 17.4176 10.5818C17.6412 10.4197 17.8878 10.2805 18.0795 10.086C18.2846 9.87761 18.4627 9.63119 18.6057 9.37495C18.7704 9.07883 18.7659 8.75312 18.6448 8.42866C18.4221 7.82978 18.6955 7.41943 19.3622 7.37435L19.363 7.37429ZM19.9264 9.61629C19.7102 9.99502 19.4983 10.3681 19.2964 10.7213C19.6363 10.8801 19.9905 11.0455 20.3304 11.2051C20.5401 10.8867 20.7588 10.5561 20.9691 10.2368C20.6173 10.0275 20.2623 9.81603 19.9263 9.61553L19.9264 9.61629Z" fill="#A3A3A3"/>
</svg>
