<svg width="24" height="24" viewBox="0 0 24 24" fill="none" xmlns="http://www.w3.org/2000/svg">
<g clip-path="url(#clip0_2096_6145)">
<path d="M7.29489 9.03306C7.74378 8.32207 8.16518 7.65421 8.58658 6.98634C9.39094 5.71216 10.1953 4.43798 10.997 3.16128C11.0815 3.02632 11.144 2.87721 11.2151 2.7341C11.6213 1.91658 12.2848 1.44015 13.1758 1.31381C14.1252 1.17944 14.9286 1.47975 15.4769 2.29405C15.9221 2.95544 15.965 3.68552 15.6267 4.40102C15.2949 5.10262 14.9101 5.77904 14.5458 6.4661C14.2701 6.98596 13.9905 7.50502 13.7051 8.03785C14.2627 8.32448 14.5404 8.81955 14.7533 9.40033C15.6479 9.12102 16.373 9.38337 16.9287 10.1633C17.0039 10.0645 17.0735 9.97649 17.1398 9.88675C17.652 9.19988 18.1597 8.50928 18.6778 7.82662C19.1303 7.22906 19.7058 6.82518 20.4628 6.70594C21.4394 6.5525 22.3648 7.18401 22.5894 8.14917C22.7841 8.98607 22.544 9.72927 22.0809 10.394C20.4904 12.681 18.8724 14.9481 17.275 17.2303C17.0584 17.5394 16.9108 17.8964 16.7125 18.2202C15.9241 19.5043 14.9252 20.5817 13.5636 21.2578C11.7343 22.1656 9.90364 22.0704 8.0959 21.1608C6.59385 20.4051 5.4603 19.2745 4.72308 17.7574C4.39628 17.0856 4.2893 16.3519 4.22497 15.6143C4.19748 15.3017 4.20152 14.9859 4.18648 14.6718C4.18328 14.6071 4.17301 14.5361 4.14365 14.4798C3.74145 13.6938 3.33984 12.9069 2.92742 12.1264C2.74925 11.7894 2.54992 11.4636 2.35145 11.1384C1.86624 10.3475 1.58517 9.4988 1.6887 8.56131C1.82487 7.32616 2.81 6.27674 3.98662 6.05502C4.66962 5.92633 5.2349 6.1846 5.75843 6.57029C6.25868 6.93832 6.61708 7.41241 6.8112 8.02202C6.91863 8.36026 7.11731 8.66966 7.29575 9.03366L7.29489 9.03306ZM11.6072 15.2319C11.577 15.2342 11.5572 15.2324 11.5387 15.2372C11.5065 15.2451 11.4746 15.2552 11.4428 15.2653C10.7365 15.4949 10.07 15.4121 9.45627 14.989C8.62575 14.4166 8.40276 13.6433 8.78793 12.7064C8.85896 12.5333 8.93946 12.363 9.02507 12.1963C9.34024 11.5824 9.66939 10.9759 9.97484 10.3577C10.3294 9.64086 10.7351 8.96899 11.2708 8.36501C11.5655 8.03315 11.8948 7.85952 12.302 7.78399C12.4277 7.76031 12.496 7.707 12.5547 7.59534C12.961 6.82508 13.3748 6.05876 13.7844 5.29017C14.0206 4.84705 14.2609 4.40547 14.488 3.95721C14.618 3.6994 14.6734 3.42475 14.5513 3.14312C14.3213 2.60962 13.6698 2.37032 13.0921 2.57949C12.7228 2.71289 12.5423 2.9976 12.3469 3.3127C11.2311 5.11155 10.0942 6.89685 8.96496 8.68756C8.58616 9.28788 8.21261 9.89253 7.827 10.4881C7.54401 10.9244 7.08898 10.9611 6.76433 10.5599C6.59056 10.3451 6.45966 10.0898 6.33631 9.83917C6.00765 9.17374 5.69065 8.5025 5.37438 7.83113C5.25115 7.56846 4.74589 7.23133 4.47163 7.24292C3.65794 7.27834 2.98147 7.91839 2.89866 8.74042C2.83387 9.38518 3.0649 9.95001 3.389 10.4879C3.57904 10.8034 3.77857 11.1134 3.94816 11.4399C4.3501 12.2117 4.75144 12.9844 5.11956 13.7719C5.23204 14.0117 5.27272 14.3017 5.28283 14.5708C5.31608 15.4624 5.41286 16.3459 5.79561 17.1571C6.59298 18.8459 7.91564 19.9522 9.6944 20.473C11.1048 20.8869 12.4234 20.6274 13.6353 19.7924C14.4889 19.2044 15.14 18.433 15.6804 17.5595C15.943 17.1342 16.1682 16.6833 16.4531 16.2751C17.9526 14.128 19.4685 11.993 20.9715 9.84896C21.2173 9.49796 21.4285 9.12454 21.4358 8.67076C21.4436 8.19814 21.1138 7.87808 20.6463 7.93276C20.2437 7.97898 19.941 8.20194 19.7033 8.51776C18.942 9.52845 18.1852 10.5429 17.4215 11.5517C17.2543 11.7726 17.1174 12.0001 17.043 12.2728C16.9836 12.4904 16.8991 12.7102 16.7814 12.902C16.2425 13.7804 15.7073 14.6627 15.128 15.5145C14.9227 15.8156 14.6237 16.0724 14.321 16.2827C13.6804 16.728 12.9248 16.6992 12.2972 16.2568C11.9391 16.0048 11.7064 15.6631 11.6061 15.2343L11.6072 15.2319ZM10.8939 14.1683C11.1763 14.0802 11.3329 14.0196 11.5132 13.7882C11.8036 13.415 12.0863 13.032 12.3367 12.6314C12.6309 12.1608 12.8973 11.6726 13.1556 11.1813C13.3195 10.8695 13.4879 10.5502 13.5823 10.2131C13.7501 9.61474 13.2789 8.94142 12.6929 8.87892C12.3794 8.84565 12.2171 8.93731 12.0883 9.21065C12.0513 9.2892 12.003 9.36226 11.9537 9.43399C11.7918 9.6719 11.6026 9.8951 11.4694 10.1475C10.9519 11.1302 10.4411 12.117 9.94905 13.1125C9.71078 13.595 9.84405 13.8934 10.3517 14.083C10.5196 14.1457 10.7123 14.1418 10.8931 14.1677L10.8939 14.1683ZM12.806 14.8734C12.8696 15.2764 13.2648 15.4851 13.5662 15.2969C13.7874 15.1581 14.0086 14.981 14.1556 14.769C14.6171 14.1038 15.0487 13.4176 15.482 12.7327C15.7301 12.34 15.9097 11.9181 15.9927 11.4532C16.0495 11.1356 15.9776 10.8676 15.7633 10.639C15.503 10.3615 14.844 10.4146 14.7267 10.719C14.3009 11.8191 13.639 12.792 13.0537 13.8047C12.8384 14.1766 12.8443 14.5485 12.8053 14.8735L12.806 14.8734Z" fill="#A3A3A3"/>
</g>
<defs>
<clipPath id="clip0_2096_6145">
<rect width="24" height="24" fill="white"/>
</clipPath>
</defs>
</svg>
