<svg width="24" height="24" viewBox="0 0 24 24" fill="none" xmlns="http://www.w3.org/2000/svg">
<g clip-path="url(#clip0_2096_7011)">
<path d="M3.20312 13.732C4.02179 13.4189 4.79193 13.1965 5.67398 13.0817C7.38477 12.8592 9.45796 12.5715 11.1452 13.1003C12.4599 13.5124 10.5284 13.9173 10.1327 14.0013C8.98816 14.2444 7.85281 14.5574 6.75614 14.9674C6.17695 15.1839 5.53206 15.4566 6.51927 15.6873C8.58344 16.1696 10.7326 15.2851 12.8032 15.822C12.9915 15.8708 13.8918 16.2132 13.4117 16.4629C12.2779 17.0525 10.9347 17.0271 9.80291 17.6101C9.68069 17.6731 9.47934 17.7874 9.40813 17.912C9.08676 18.4744 10.1578 18.2763 10.402 18.2743C12.1098 18.2601 14.0211 17.9429 15.706 18.3486C15.9485 18.4069 16.1534 18.4894 16.3284 18.6644" stroke="#F4B130" stroke-width="1.6" stroke-linecap="round"/>
<path d="M7.28935 9.00162C7.73876 8.29361 8.16065 7.62853 8.58254 6.96346C9.38784 5.6946 10.1931 4.42575 10.9958 3.15439C11.0803 3.01999 11.143 2.87153 11.2142 2.72904C11.6211 1.91503 12.2849 1.44029 13.1758 1.3138C14.1251 1.17927 14.9282 1.47751 15.4758 2.28752C15.9204 2.94543 15.9626 3.67204 15.6237 4.38446C15.2914 5.08303 14.9061 5.75659 14.5413 6.44072C14.2652 6.95837 13.9852 7.47521 13.6994 8.00577C14.2567 8.2906 14.5339 8.7831 14.7464 9.36098C15.6411 9.08224 16.3658 9.34276 16.9208 10.1186C16.9961 10.0202 17.0657 9.9325 17.1321 9.84313C17.6448 9.15907 18.153 8.4713 18.6716 7.79141C19.1245 7.19629 19.7002 6.79383 20.4573 6.67453C21.4339 6.521 22.3585 7.14877 22.5824 8.10921C22.7763 8.94201 22.5356 9.68191 22.0721 10.3439C20.4799 12.6215 18.8602 14.8792 17.2612 17.152C17.0444 17.4598 16.8965 17.8152 16.6979 18.1378C15.9086 19.4165 14.909 20.4896 13.547 21.1636C11.7172 22.0687 9.8869 21.9755 8.08018 21.0717C6.57897 20.3208 5.44653 19.1964 4.71068 17.6871C4.38449 17.0187 4.27813 16.2885 4.21441 15.5545C4.18719 15.2434 4.1915 14.929 4.17671 14.6165C4.17357 14.552 4.16336 14.4814 4.13405 14.4253C3.73256 13.6433 3.33166 12.8605 2.91995 12.084C2.74209 11.7487 2.54306 11.4246 2.34488 11.1011C1.8604 10.3143 1.58007 9.46991 1.68436 8.53674C1.82154 7.30729 2.80739 6.26199 3.98403 6.04033C4.66703 5.91168 5.23202 6.16826 5.75515 6.5517C6.25503 6.91759 6.61298 7.38915 6.80656 7.99574C6.9137 8.3323 7.11209 8.64008 7.2902 9.00222L7.28935 9.00162ZM11.5959 15.1677C11.5657 15.17 11.5459 15.1683 11.5274 15.173C11.4952 15.181 11.4633 15.1911 11.4315 15.2012C10.7251 15.4302 10.0588 15.3484 9.44547 14.9278C8.61555 14.3587 8.39323 13.5892 8.77912 12.6564C8.85029 12.4841 8.93091 12.3145 9.01665 12.1486C9.33228 11.5373 9.66189 10.9333 9.96781 10.3178C10.3229 9.60404 10.7291 8.935 11.2653 8.33342C11.5602 8.00287 11.8896 7.82979 12.2967 7.75427C12.4225 7.7306 12.4908 7.67749 12.5496 7.56631C12.9565 6.79933 13.3708 6.03627 13.781 5.27095C14.0176 4.82972 14.2582 4.39002 14.4856 3.94368C14.6159 3.68698 14.6714 3.41357 14.5496 3.13337C14.3201 2.60256 13.6688 2.36493 13.091 2.5736C12.7217 2.70667 12.541 2.9902 12.3454 3.30398C11.2282 5.09529 10.09 6.87314 8.95945 8.65636C8.58022 9.25417 8.20622 9.85629 7.82017 10.4493C7.53686 10.8839 7.08187 10.9208 6.7576 10.5217C6.58403 10.3081 6.45337 10.0541 6.33024 9.80473C6.00218 9.14271 5.68578 8.47489 5.37012 7.80694C5.24712 7.54561 4.74221 7.21048 4.46799 7.22224C3.65438 7.25817 2.97749 7.89577 2.894 8.714C2.82869 9.35578 3.05921 9.91777 3.38282 10.4529C3.57257 10.7667 3.77181 11.075 3.94111 11.3999C4.34235 12.1678 4.74299 12.9365 5.1104 13.72C5.22267 13.9586 5.2631 14.2472 5.27299 14.515C5.3055 15.4024 5.40152 16.2816 5.78355 17.0887C6.5794 18.7689 7.90095 19.8689 9.67902 20.3857C11.0889 20.7965 12.4075 20.5371 13.6199 19.7051C14.4739 19.1191 15.1255 18.3508 15.6666 17.481C15.9295 17.0575 16.155 16.6085 16.4403 16.202C17.9413 14.0638 19.4587 11.9375 20.9633 9.80234C21.2093 9.45279 21.4208 9.08095 21.4285 8.62929C21.4367 8.15889 21.1072 7.84061 20.6397 7.89542C20.2372 7.94176 19.9343 8.16392 19.6963 8.47846C18.9344 9.48502 18.1768 10.4953 17.4123 11.5001C17.245 11.72 17.108 11.9465 17.0334 12.2181C16.9738 12.4347 16.8891 12.6535 16.7712 12.8445C16.2317 13.7193 15.6959 14.5978 15.1159 15.4461C14.9104 15.746 14.6112 16.0018 14.3084 16.2113C13.6675 16.6551 12.9121 16.627 12.2849 16.1872C11.9271 15.9367 11.6947 15.5968 11.5948 15.1701L11.5959 15.1677ZM10.8836 14.1097C11.166 14.0218 11.3227 13.9613 11.5031 13.7309C11.7937 13.3593 12.0767 12.9778 12.3275 12.5789C12.622 12.1103 12.8887 11.6241 13.1475 11.1349C13.3115 10.8245 13.4802 10.5065 13.5749 10.1709C13.7432 9.57521 13.2726 8.90545 12.6867 8.84372C12.3732 8.81088 12.2109 8.90224 12.0819 9.1744C12.0449 9.25261 11.9965 9.32536 11.9471 9.3968C11.785 9.63373 11.5957 9.85604 11.4623 10.1073C10.9441 11.0858 10.4326 12.0684 9.93974 13.0596C9.7011 13.5401 9.8341 13.837 10.3415 14.0253C10.5093 14.0876 10.702 14.0834 10.8827 14.1091L10.8836 14.1097ZM12.7948 14.8099C12.8581 15.211 13.2531 15.4184 13.5545 15.2308C13.7758 15.0925 13.9971 14.916 14.1443 14.7049C14.6063 14.0425 15.0384 13.3591 15.4722 12.677C15.7206 12.286 15.9005 11.866 15.9839 11.4032C16.0409 11.087 15.9692 10.8203 15.7552 10.593C15.4952 10.317 14.8362 10.3704 14.7187 10.6734C14.292 11.7687 13.6294 12.7376 13.0433 13.746C12.8278 14.1163 12.8334 14.4865 12.7941 14.8101L12.7948 14.8099Z" fill="black"/>
</g>
<defs>
<clipPath id="clip0_2096_7011">
<rect width="24" height="24" fill="white"/>
</clipPath>
</defs>
</svg>
