<svg width="20" height="20" viewBox="0 0 20 20" fill="none" xmlns="http://www.w3.org/2000/svg">
<path d="M9.99959 2.5C10.2067 2.50001 10.4065 2.57718 10.5598 2.71645C10.7132 2.85573 10.8091 3.04713 10.829 3.25333L10.8329 3.33333V9.16667H16.6663C16.8803 9.16677 17.086 9.24921 17.2409 9.39689C17.3958 9.54458 17.4879 9.74619 17.4982 9.95995C17.5085 10.1737 17.4361 10.3832 17.2962 10.5451C17.1562 10.707 16.9593 10.8088 16.7463 10.8294L16.6663 10.8333H10.8329V16.6667C10.8328 16.8807 10.7504 17.0864 10.6027 17.2413C10.455 17.3962 10.2534 17.4883 10.0396 17.4986C9.82587 17.5089 9.61635 17.4366 9.45447 17.2966C9.2926 17.1566 9.19079 16.9597 9.17014 16.7467L9.16625 16.6667V10.8333H3.33292C3.11891 10.8332 2.91315 10.7508 2.75826 10.6031C2.60338 10.4554 2.51125 10.2538 2.50096 10.04C2.49068 9.82628 2.56303 9.61676 2.70302 9.45489C2.84301 9.29302 3.03991 9.19121 3.25292 9.17056L3.33292 9.16667H9.16625V3.33333C9.16625 3.11232 9.25405 2.90036 9.41033 2.74408C9.56661 2.5878 9.77857 2.5 9.99959 2.5Z" fill="#A3A3A3"/>
</svg>
