<svg width="104" height="104" viewBox="0 0 104 104" fill="none" xmlns="http://www.w3.org/2000/svg">
<g opacity="0.5" clip-path="url(#clip0_1109_47379)">
<path d="M38.1688 54.801C38.2371 51.0505 38.6679 47.5656 39.8348 44.2078C40.8281 41.3448 42.2205 38.7051 44.461 36.6111C48.2716 33.0486 52.648 32.2334 57.4973 34.1159C60.9498 35.4548 63.6039 37.8578 65.8575 40.7252C69.301 45.1029 71.4714 50.0919 72.7865 55.4714C74.2548 61.4815 74.5886 67.5313 73.2418 73.6126C72.4353 77.256 71.0282 80.6307 68.4875 83.4432C64.7837 87.5405 59.4917 88.6875 54.4132 86.5069C51.4855 85.2503 49.1306 83.2496 47.0756 80.8576C46.8091 80.5456 46.549 80.2299 46.3112 79.949C46.0327 82.0182 45.9246 84.1118 45.4364 86.113C44.9943 87.9226 44.3379 89.7405 43.4364 91.364C40.2087 97.1636 34.0903 99.2114 27.9551 96.6683C23.8593 94.9711 20.8159 92.0135 18.2805 88.4715C15.1293 84.0668 13.288 79.1043 12.1666 73.8468C11.4673 70.56 11.0207 67.2455 11.1089 63.8738C11.2334 59.1772 11.9571 54.6338 14.5774 50.5958C17.8008 45.6328 23.2026 44.022 28.6207 46.3805C32.1841 47.9331 34.8724 50.542 37.2282 53.5477C37.5042 53.902 37.7676 54.2637 38.1754 54.8005L38.1688 54.801ZM65.6102 78.1796C65.4759 78.103 65.4224 78.0473 65.3764 78.0505C65.2283 78.0609 65.0775 78.078 64.9423 78.1304C62.3792 79.1097 60.1935 78.3468 58.2147 76.6669C56.6365 75.3259 55.4752 73.6582 54.5505 71.8286C51.6833 66.1411 50.4584 60.1139 50.9961 53.7619C51.1916 51.4505 51.7525 49.2128 53.0762 47.2458C54.9724 44.4353 57.8705 43.6607 60.925 45.1233C61.4995 45.3972 62.0885 45.6403 62.6685 45.8973C61.0605 43.279 59.1234 41.0605 56.4286 39.6357C52.9064 37.7727 49.6295 38.5209 47.2302 41.7004C45.7995 43.6023 44.9558 45.7672 44.4283 48.0588C43.342 52.8061 43.5147 57.5447 44.4588 62.2989C45.3147 66.5963 46.768 70.6437 49.1039 74.3583C50.6996 76.8948 52.6089 79.1417 55.19 80.7365C56.5616 81.5828 58.0437 82.1635 59.6756 82.099C62.4019 81.9877 64.1553 80.3509 65.6034 78.1768L65.6102 78.1796ZM32.8585 56.8683C30.7352 54.2563 28.5123 51.9223 25.2002 50.9836C23.143 50.4034 21.3496 50.9487 20.0234 52.549C19.1788 53.5668 18.4791 54.7662 17.9731 55.9917C16.7836 58.885 16.5261 61.9644 16.6005 65.0602C16.7015 69.1526 17.4331 73.138 18.7074 77.036C20.2715 81.8162 22.6232 86.0884 26.5009 89.3943C28.2621 90.8944 30.2385 91.9728 32.5939 92.2312C34.0265 92.3889 35.7318 91.8598 36.5031 90.976C33.6641 90.2323 31.3881 88.6029 29.5697 86.3795C25.7192 81.6666 23.4711 76.2764 23.031 70.1712C22.8397 67.4836 23.0319 64.8419 24.1635 62.3494C25.5041 59.3959 27.7126 57.5059 30.9834 57.0027C31.559 56.9129 32.1509 56.9145 32.8615 56.8648L32.8585 56.8683Z" fill="#6FDFB0"/>
<path d="M84.4864 18.2595C84.4324 19.8037 83.3702 21.207 81.9188 21.2522C79.4716 21.3341 77.9264 22.6851 76.7701 24.6338C75.028 27.5655 74.4014 30.8028 74.2792 34.1601C74.2608 34.654 74.4154 35.1622 74.526 35.6569C74.8891 37.3043 74.1492 38.7775 72.7249 39.211C71.2652 39.6568 69.8577 38.9123 69.2838 37.2764C67.13 31.1526 62.4473 28.6238 56.3358 28.0693C55.2079 27.9664 54.0839 27.8235 52.9698 27.6336C51.8322 27.4388 50.9916 26.5752 50.7883 25.5118C50.5787 24.4057 51.0863 23.2959 52.1045 22.6825C52.3329 22.5442 52.5791 22.4245 52.8344 22.3406C57.2736 20.9161 59.2847 17.5754 60.0221 13.2296C60.4016 10.9981 60.137 8.82156 59.4713 6.67636C58.7322 4.28505 59.574 2.89725 62.008 2.48572C64.5532 2.0565 65.4506 2.645 66.1373 5.18542C67.8403 11.4796 73.4273 15.5947 79.93 15.5037C81 15.4884 82.1572 15.9628 83.1258 16.4835C83.7235 16.8054 84.0435 17.6458 84.4859 18.2529L84.4864 18.2595ZM61.2937 23.2829C64.4679 24.2378 67.1757 25.708 69.6128 27.845C70.3729 24.9588 71.4825 22.3424 73.2922 19.9976C70.1987 18.9214 67.6257 17.2037 65.3448 14.7946C64.688 18.0241 63.4235 20.7902 61.2939 23.2862L61.2937 23.2829Z" fill="#6FDFB0"/>
<path d="M83.5797 31.3577C84.631 31.3107 85.496 31.8155 86.0801 32.7928C88.4381 36.7304 91.9856 38.8163 96.4338 39.5995C97.2571 39.7435 98.0957 40.1543 98.7844 40.6417C100.169 41.6226 100.153 43.67 98.8146 44.7619C98.4048 45.0947 97.8982 45.3186 97.4188 45.5538C94.5258 46.966 92.7637 49.2347 92.2597 52.427C92.1838 52.9017 92.3418 53.413 92.3897 53.9088C92.4554 54.6116 92.6444 55.329 92.56 56.0126C92.4309 57.0497 91.7095 57.7018 90.7119 57.9964C89.6981 58.2954 88.7746 58.0426 88.0895 57.274C87.6016 56.7263 87.1235 56.082 86.9102 55.3961C86.5478 54.2313 85.807 53.4236 84.8898 52.7407C82.9127 51.2723 80.6729 50.6322 78.2229 50.9093C76.8256 51.0665 75.7261 50.6608 74.7592 49.6441C73.3638 48.1747 73.4925 46.374 75.1448 45.184C76.1141 44.4848 77.1829 43.8845 78.0135 43.0462C78.9028 42.1477 79.6748 41.0854 80.2951 39.9809C81.0091 38.7045 80.9903 37.3008 80.4661 35.9028C79.5022 33.3222 80.6876 31.5534 83.5764 31.358L83.5797 31.3577ZM86.0173 41.0188C85.0802 42.6512 84.1612 44.2593 83.2858 45.7817C84.7585 46.4655 86.2926 47.1781 87.7654 47.8652C88.6744 46.4925 89.6227 45.0675 90.5348 43.6913C89.0105 42.7896 87.4725 41.879 86.017 41.0155L86.0173 41.0188Z" fill="#6FDFB0"/>
</g>
<defs>
<clipPath id="clip0_1109_47379">
<rect width="104" height="104" fill="white"/>
</clipPath>
</defs>
</svg>
