<svg width="14" height="14" viewBox="0 0 14 14" fill="none" xmlns="http://www.w3.org/2000/svg">
<path d="M1.75 3.5H2.91667H12.25" stroke="#004F99" stroke-linecap="round" stroke-linejoin="round"/>
<path d="M11.0885 3.5013V11.668C11.0885 11.9774 10.9656 12.2741 10.7468 12.4929C10.528 12.7117 10.2313 12.8346 9.92187 12.8346H4.08854C3.77912 12.8346 3.48238 12.7117 3.26358 12.4929C3.04479 12.2741 2.92188 11.9774 2.92188 11.668V3.5013M4.67187 3.5013V2.33464C4.67187 2.02522 4.79479 1.72847 5.01358 1.50968C5.23238 1.29089 5.52912 1.16797 5.83854 1.16797H8.17188C8.48129 1.16797 8.77804 1.29089 8.99683 1.50968C9.21563 1.72847 9.33854 2.02522 9.33854 2.33464V3.5013" stroke="#004F99" stroke-linecap="round" stroke-linejoin="round"/>
</svg>
